<?xml version="1.0" encoding="utf-8"?>
<svg version="1.0" xmlns="http://www.w3.org/2000/svg" width="1920.000000pt" height="1920.000000pt" viewBox="0 0 1920.000000 1920.000000" preserveAspectRatio="xMidYMid meet">
  <g transform="translate(0.000000,1920.000000) scale(0.100000,-0.100000)" fill="#000000" stroke="none">
    <path d="M9545 19097 c-90 -185 -97 -350 -24 -533 l20 -51 -27 -53 c-19 -38 -27 -69 -27 -106 0 -51 0 -52 -24 -43 -46 17 -135 10 -188 -15 -62 -29 -86 -55 -122 -131 -24 -53 -27 -72 -27 -155 1 -60 6 -111 16 -138 26 -70 9 -104 -71 -149 -36 -20 -111 -71 -168 -114 -86 -66 -106 -77 -125 -70 -26 9 -46 5 -69 -15 -13 -12 -38 -10 -163 11 -81 14 -164 25 -185 25 -38 0 -148 -49 -280 -124 -44 -25 -67 -34 -75 -26 -15 15 -63 12 -81 -6 -15 -15 -21 -15 -83 9 -83 33 -234 76 -288 84 -51 7 -70 40 -78 134 -18 224 -167 374 -336 338 -27 -6 -66 -21 -85 -35 -20 -13 -37 -24 -39 -24 -2 0 -6 17 -10 39 -4 27 -20 55 -53 91 l-47 53 -1 106 c-1 58 -8 129 -15 156 -30 117 -106 237 -211 333 l-47 42 -13 -67 c-23 -113 -17 -254 15 -346 28 -83 79 -172 128 -224 25 -26 29 -36 23 -63 -12 -53 -7 -127 10 -159 l16 -31 -39 0 c-89 0 -177 -54 -216 -132 -49 -98 -28 -262 49 -375 50 -74 47 -96 -25 -179 -34 -38 -89 -110 -123 -161 -50 -75 -67 -92 -87 -93 -30 0 -70 -26 -70 -44 0 -9 -29 -17 -87 -25 -49 -6 -131 -19 -183 -28 l-95 -17 -126 -127 c-109 -110 -129 -126 -152 -122 -19 4 -33 -2 -53 -22 l-28 -28 -140 1 c-78 1 -169 -2 -202 -6 -55 -7 -64 -6 -87 14 -13 11 -28 32 -32 45 -18 56 -70 145 -112 190 -115 123 -280 133 -386 24 -20 -21 -37 -43 -37 -48 0 -6 -13 9 -28 34 -20 32 -46 54 -88 76 -58 31 -60 33 -71 88 -19 87 -77 197 -140 266 -74 79 -191 159 -272 184 -24 7 -24 7 -17 -51 19 -167 78 -297 181 -399 39 -38 94 -83 123 -100 44 -26 52 -34 52 -60 0 -51 20 -104 50 -139 l29 -33 -38 -11 c-55 -17 -126 -83 -147 -139 -20 -53 -22 -119 -5 -180 17 -61 88 -161 147 -208 79 -62 82 -81 33 -195 -22 -51 -52 -138 -67 -192 -21 -76 -32 -99 -47 -104 -31 -10 -55 -35 -55 -58 -1 -17 -31 -36 -163 -101 l-162 -80 -80 -162 c-65 -131 -84 -162 -101 -162 -24 -1 -48 -25 -58 -57 -5 -15 -18 -24 -43 -29 -53 -10 -208 -63 -282 -96 -56 -26 -68 -28 -96 -18 -17 7 -42 27 -55 46 -36 52 -106 110 -176 144 -76 38 -162 43 -232 14 -51 -21 -118 -94 -134 -146 l-11 -38 -33 29 c-35 30 -88 50 -139 50 -26 0 -34 8 -60 52 -16 29 -61 84 -100 123 -102 103 -232 162 -399 181 -58 7 -58 7 -51 -17 25 -81 105 -198 184 -272 69 -63 179 -121 266 -140 55 -11 57 -13 88 -71 22 -42 44 -68 76 -88 25 -15 40 -28 34 -28 -5 0 -27 -17 -48 -37 -109 -106 -99 -271 24 -386 45 -42 134 -94 190 -112 13 -4 34 -19 45 -32 20 -23 21 -32 14 -87 -4 -33 -7 -124 -6 -202 l1 -140 -28 -28 c-20 -20 -26 -34 -22 -53 4 -23 -12 -43 -122 -152 l-127 -126 -17 -95 c-9 -52 -22 -134 -28 -182 -8 -59 -16 -88 -25 -88 -18 0 -44 -40 -44 -70 -1 -20 -18 -37 -93 -87 -51 -34 -123 -89 -161 -123 -83 -72 -105 -75 -179 -25 -113 77 -277 98 -375 49 -78 -39 -132 -127 -132 -216 0 -37 -1 -38 -22 -27 -41 22 -91 28 -146 18 -53 -10 -55 -10 -86 19 -51 49 -140 100 -223 128 -92 32 -233 38 -345 15 l-68 -13 40 -45 c89 -101 217 -183 335 -213 28 -7 98 -14 156 -15 l106 -1 53 -47 c36 -33 64 -49 91 -53 22 -4 39 -8 39 -10 0 -2 -11 -19 -24 -39 -14 -19 -29 -58 -35 -85 -36 -169 114 -318 338 -336 94 -8 127 -27 134 -78 8 -51 58 -224 86 -294 19 -48 20 -55 6 -75 -17 -25 -20 -68 -5 -83 8 -8 -1 -31 -26 -75 -75 -132 -124 -242 -124 -280 0 -21 11 -104 25 -185 21 -124 23 -150 12 -163 -22 -25 -28 -51 -17 -71 9 -16 -3 -37 -68 -123 -43 -57 -95 -132 -115 -168 -45 -80 -79 -97 -149 -71 -27 10 -78 15 -138 16 -83 0 -102 -3 -155 -27 -76 -36 -102 -60 -131 -122 -25 -53 -32 -142 -15 -188 9 -24 8 -24 -43 -24 -37 0 -68 -8 -106 -27 l-53 -27 -51 20 c-126 50 -247 62 -370 36 -69 -15 -256 -98 -256 -114 0 -13 126 -76 200 -101 132 -43 297 -35 429 22 l45 19 55 -27 c39 -19 71 -27 107 -27 51 0 52 0 43 -24 -17 -46 -10 -135 15 -188 29 -62 55 -86 131 -122 53 -24 72 -27 155 -27 60 1 111 6 138 16 70 26 104 9 149 -71 20 -36 71 -111 114 -168 73 -95 78 -105 67 -128 -10 -22 -8 -30 10 -55 l22 -29 -25 -146 c-14 -81 -25 -163 -25 -184 0 -38 49 -148 124 -280 25 -44 34 -67 26 -75 -15 -15 -12 -58 5 -83 14 -20 13 -27 -10 -85 -15 -35 -41 -121 -60 -192 -38 -148 -51 -165 -125 -166 -59 0 -160 -25 -211 -50 -50 -26 -116 -85 -134 -121 -42 -80 -37 -183 11 -254 13 -20 24 -37 24 -39 0 -2 -18 -6 -39 -10 -28 -4 -55 -20 -94 -56 l-54 -49 -69 5 c-91 7 -215 -16 -298 -55 -75 -36 -174 -112 -228 -175 l-38 -44 68 -13 c112 -23 253 -17 345 15 83 28 172 79 224 128 25 25 36 29 61 23 54 -11 129 -7 161 9 l31 17 0 -39 c0 -89 54 -177 132 -216 98 -49 262 -28 375 49 75 51 98 48 180 -26 37 -33 109 -88 160 -122 75 -51 92 -67 93 -87 0 -30 26 -70 44 -70 9 0 17 -29 25 -87 6 -49 19 -131 28 -183 l17 -95 127 -126 c111 -109 126 -129 122 -152 -4 -19 2 -33 23 -54 l28 -28 -2 -140 c-1 -77 2 -168 6 -201 7 -55 6 -64 -14 -87 -11 -13 -32 -28 -45 -32 -56 -18 -145 -70 -190 -112 -123 -115 -133 -280 -24 -386 21 -20 43 -37 48 -37 6 0 -9 -13 -34 -28 -32 -20 -54 -46 -76 -88 -31 -58 -33 -60 -88 -71 -87 -19 -197 -77 -266 -140 -79 -74 -159 -191 -184 -272 -7 -24 -7 -24 51 -17 167 19 297 78 399 181 39 39 84 94 100 123 26 44 34 52 60 52 51 0 104 20 139 50 l33 29 11 -38 c16 -52 83 -125 134 -146 50 -20 125 -23 185 -6 60 16 161 88 208 147 22 28 54 56 71 63 27 10 39 8 95 -18 74 -33 229 -86 282 -96 25 -5 38 -14 43 -29 10 -32 34 -56 58 -57 17 0 36 -31 101 -162 l80 -162 162 -80 c132 -65 162 -84 163 -101 0 -24 26 -50 54 -55 14 -3 24 -23 41 -84 24 -89 54 -172 92 -258 20 -44 23 -61 15 -69 -7 -7 -12 -19 -12 -28 0 -8 -16 -26 -36 -39 -53 -37 -110 -106 -145 -177 -38 -76 -43 -162 -14 -232 21 -51 94 -118 146 -134 l38 -11 -29 -33 c-30 -35 -50 -88 -50 -139 0 -26 -8 -34 -52 -60 -29 -16 -84 -61 -123 -100 -103 -102 -162 -232 -181 -399 -7 -58 -7 -58 17 -51 81 25 198 105 272 184 63 69 121 179 140 266 11 55 13 57 71 88 42 22 68 44 88 76 15 25 28 40 28 34 0 -5 17 -27 37 -48 107 -110 270 -100 386 24 42 45 94 134 112 190 4 13 19 34 32 45 23 20 32 21 87 14 33 -4 124 -7 201 -6 l140 2 28 -28 c22 -22 34 -27 57 -23 25 6 35 -2 95 -68 36 -41 94 -99 128 -129 l62 -54 125 -20 c69 -12 149 -24 178 -27 34 -5 52 -12 52 -20 0 -19 40 -45 70 -45 20 -1 36 -18 87 -93 34 -51 89 -123 122 -160 74 -82 77 -105 26 -180 -77 -113 -98 -277 -49 -375 39 -78 127 -132 216 -132 l39 0 -16 -30 c-18 -35 -22 -86 -12 -150 7 -41 5 -48 -19 -70 -43 -42 -111 -161 -135 -240 -19 -61 -23 -95 -22 -185 1 -60 8 -134 15 -164 l13 -54 86 90 c134 142 181 255 184 444 l1 106 47 53 c33 36 49 64 53 91 4 22 8 39 10 39 2 0 19 -11 39 -24 19 -14 58 -29 85 -35 169 -36 318 114 336 338 3 36 13 80 21 96 13 27 23 32 82 43 36 7 126 33 200 58 121 41 135 44 150 30 20 -18 62 -21 77 -6 8 8 34 -2 85 -31 124 -71 235 -119 272 -119 20 0 102 11 183 25 136 24 148 24 165 9 12 -11 30 -15 56 -12 34 4 46 -2 138 -72 56 -42 130 -93 166 -113 80 -45 97 -79 71 -149 -10 -27 -15 -78 -16 -138 0 -83 3 -102 27 -155 36 -76 60 -102 122 -131 53 -25 125 -31 181 -15 l31 9 0 -52 c0 -37 8 -68 27 -106 l27 -53 -20 -51 c-50 -126 -62 -247 -36 -370 15 -69 98 -256 114 -256 13 0 76 126 101 200 43 132 35 297 -22 429 l-19 45 27 55 c19 39 27 71 27 107 l0 52 31 -9 c56 -16 128 -10 181 15 62 29 86 55 122 131 24 53 27 72 27 155 -1 59 -6 111 -16 137 -27 75 -15 98 84 158 48 29 125 83 172 119 79 61 87 65 111 54 22 -10 30 -8 55 10 l29 22 146 -25 c81 -14 162 -25 181 -25 39 0 117 33 253 109 65 35 98 48 105 41 15 -15 62 -12 80 5 14 14 29 11 148 -29 73 -25 163 -51 199 -58 59 -11 69 -16 82 -43 8 -16 18 -59 21 -95 11 -131 60 -233 143 -296 79 -60 196 -64 278 -8 20 13 37 24 39 24 2 0 6 -18 10 -39 4 -28 20 -55 56 -94 l49 -54 -5 -69 c-15 -189 67 -376 227 -522 l47 -42 13 67 c23 114 17 254 -15 347 -27 78 -94 195 -133 229 -19 16 -20 26 -16 101 4 63 2 89 -10 113 l-16 31 52 4 c93 8 171 61 208 143 41 89 15 257 -56 362 -51 75 -48 98 26 180 33 37 88 109 122 160 51 75 67 92 87 93 30 0 70 26 70 45 0 8 18 15 53 20 28 3 108 15 177 27 124 20 125 20 181 69 32 27 90 85 129 129 64 71 74 79 100 73 23 -4 35 1 57 23 l28 28 140 -2 c77 -1 168 2 201 6 55 7 64 6 87 -14 13 -11 28 -32 32 -45 18 -56 70 -145 112 -190 116 -124 279 -134 386 -24 20 21 37 43 37 48 0 6 13 -9 28 -34 20 -32 46 -54 88 -76 58 -31 60 -33 71 -88 19 -87 77 -197 140 -266 74 -79 191 -159 272 -184 24 -7 24 -7 17 51 -19 167 -78 297 -181 399 -39 39 -94 84 -123 100 -44 26 -52 34 -52 60 0 51 -20 104 -50 139 l-29 33 38 11 c52 16 125 83 146 134 20 50 23 125 6 185 -16 60 -88 161 -147 208 -28 22 -56 54 -63 71 -10 27 -8 39 18 95 32 72 87 233 97 284 4 23 13 36 28 41 32 10 56 34 57 58 0 17 31 36 162 101 l162 80 80 162 c65 131 84 162 101 162 24 1 50 27 55 55 3 14 27 25 99 46 103 30 209 68 259 95 45 23 85 5 136 -59 47 -59 148 -131 208 -147 60 -17 135 -14 185 6 51 21 118 94 134 146 l11 38 33 -29 c35 -30 88 -50 139 -50 26 0 34 -8 60 -52 17 -29 62 -84 100 -123 102 -103 232 -162 399 -181 58 -7 58 -7 51 17 -25 81 -105 198 -184 272 -69 63 -179 121 -266 140 -55 11 -57 13 -88 71 -22 42 -44 68 -76 88 -25 15 -40 28 -34 28 5 0 27 17 48 37 110 107 100 270 -24 386 -45 42 -134 94 -190 112 -13 4 -34 19 -45 32 -20 23 -21 32 -14 87 4 33 7 124 6 201 l-2 140 28 28 c22 22 27 34 23 57 -6 26 2 36 73 100 44 39 102 97 129 129 49 56 49 57 69 181 12 69 24 149 27 178 5 34 12 52 20 52 19 0 45 40 45 70 1 20 18 36 93 87 51 34 123 89 160 122 82 74 105 77 180 26 105 -71 273 -97 362 -56 82 37 135 115 143 208 l4 52 31 -15 c30 -16 106 -20 159 -9 25 6 36 2 61 -23 52 -49 141 -100 224 -128 92 -32 233 -38 346 -15 l67 13 -42 47 c-146 160 -333 242 -522 227 l-69 -5 -54 49 c-39 36 -66 52 -94 56 -21 4 -39 8 -39 10 0 2 11 19 24 39 56 82 52 199 -8 278 -63 83 -165 132 -296 143 -36 3 -79 13 -95 21 -27 13 -32 23 -43 82 -7 36 -33 126 -58 200 -41 121 -44 135 -30 150 18 20 21 62 6 77 -7 7 6 40 41 105 76 136 109 214 109 253 0 19 -11 101 -25 182 -21 125 -23 150 -11 163 20 24 24 43 15 69 -8 20 1 36 57 108 36 47 90 124 119 171 60 101 81 113 155 86 29 -10 79 -16 140 -17 83 0 102 3 155 27 76 36 102 60 131 122 25 53 31 125 15 181 l-9 31 52 0 c36 0 68 8 107 27 l55 27 45 -19 c132 -57 297 -65 429 -22 74 25 200 88 200 101 0 16 -187 99 -256 114 -123 26 -244 14 -370 -36 l-51 -20 -53 27 c-38 19 -69 27 -106 27 l-52 0 9 31 c16 56 10 128 -15 181 -29 62 -55 86 -131 122 -53 24 -72 27 -155 27 -61 -1 -111 -7 -140 -17 -74 -27 -95 -15 -155 86 -29 47 -83 125 -119 171 -56 72 -65 89 -56 105 11 21 5 47 -17 72 -12 14 -10 38 12 163 14 81 25 163 25 183 0 37 -48 148 -119 272 -29 51 -39 77 -31 85 15 15 12 57 -6 77 -14 15 -11 29 30 150 25 74 51 164 58 200 11 59 16 69 43 82 16 8 60 18 96 21 224 18 374 167 338 336 -6 27 -21 66 -35 85 -13 20 -24 37 -24 39 0 2 17 6 39 10 27 4 55 20 91 53 l53 47 106 1 c189 3 302 50 444 184 l90 86 -54 13 c-30 7 -103 14 -164 15 -90 1 -124 -3 -185 -22 -82 -25 -173 -76 -232 -129 -36 -33 -38 -33 -91 -23 -54 10 -104 4 -145 -18 -21 -11 -22 -10 -22 27 0 89 -54 177 -132 216 -98 49 -262 28 -375 -49 -75 -51 -98 -48 -180 26 -37 33 -109 88 -160 122 -75 51 -92 67 -93 87 0 30 -26 70 -45 70 -8 0 -15 18 -20 53 -3 28 -15 108 -27 177 l-20 125 -54 62 c-30 34 -88 92 -129 128 -66 60 -74 70 -68 95 4 23 -1 35 -23 57 l-28 28 2 140 c1 77 -2 168 -6 201 -7 55 -6 64 14 87 11 13 32 28 45 32 56 18 145 70 190 112 124 116 134 279 24 386 -21 20 -43 37 -48 37 -6 0 9 13 34 28 32 20 54 46 76 88 31 58 33 60 88 71 87 19 197 77 266 140 79 74 159 191 184 272 7 24 7 24 -51 17 -167 -19 -297 -78 -399 -181 -38 -39 -83 -94 -100 -123 -26 -44 -34 -52 -60 -52 -51 0 -104 -20 -139 -50 l-33 -29 -11 38 c-16 52 -83 125 -134 146 -70 29 -156 24 -232 -14 -70 -34 -140 -92 -176 -144 -13 -19 -38 -40 -56 -46 -28 -10 -39 -9 -71 7 -59 30 -177 72 -267 97 -62 17 -82 27 -85 41 -5 28 -31 54 -55 55 -17 0 -36 31 -101 162 l-80 162 -162 80 c-131 65 -162 84 -162 101 -1 24 -25 48 -57 58 -15 5 -24 18 -29 43 -10 53 -63 208 -96 282 -26 56 -28 68 -18 95 7 17 35 49 63 71 59 47 131 148 147 208 17 60 14 135 -6 185 -21 51 -94 118 -146 134 l-38 11 29 33 c30 35 50 88 50 139 0 26 8 34 52 60 29 17 84 62 123 100 103 102 162 232 181 399 7 58 7 58 -17 51 -81 -25 -198 -105 -272 -184 -63 -69 -121 -179 -140 -266 -11 -55 -13 -57 -71 -88 -42 -22 -68 -44 -88 -76 -15 -25 -28 -40 -28 -34 0 5 -17 27 -37 48 -106 109 -271 99 -386 -24 -42 -45 -94 -134 -112 -190 -4 -13 -19 -34 -32 -45 -23 -20 -32 -21 -87 -14 -33 4 -124 7 -202 6 l-140 -1 -28 28 c-20 20 -34 26 -53 22 -23 -4 -43 11 -152 122 l-126 127 -95 17 c-52 9 -134 22 -182 28 -59 8 -88 16 -88 25 0 18 -40 44 -70 44 -20 1 -36 18 -87 93 -34 51 -89 123 -122 160 -74 82 -77 105 -26 180 77 113 98 277 49 375 -39 78 -127 132 -216 132 l-39 0 17 32 c13 25 15 50 11 114 -4 75 -3 85 16 101 39 34 106 151 133 229 32 93 38 233 15 346 l-13 68 -44 -38 c-63 -54 -139 -153 -175 -228 -39 -83 -62 -207 -55 -298 l5 -69 -49 -54 c-36 -39 -52 -66 -56 -94 -4 -21 -8 -39 -10 -39 -2 0 -19 11 -39 24 -71 48 -174 53 -254 11 -36 -18 -95 -84 -121 -134 -25 -50 -50 -152 -50 -208 0 -51 -28 -103 -55 -103 -33 0 -204 -48 -292 -81 -76 -29 -83 -30 -98 -15 -18 18 -66 21 -81 6 -8 -8 -31 1 -75 26 -132 75 -242 124 -280 124 -21 0 -103 -11 -184 -25 l-146 -25 -29 22 c-25 18 -33 20 -55 10 -24 -11 -32 -7 -111 54 -47 36 -124 90 -171 118 -104 63 -108 73 -78 201 28 118 -1 261 -68 334 -53 58 -187 89 -260 62 -24 -9 -24 -8 -24 43 0 36 -8 68 -27 107 l-27 55 19 45 c57 132 65 297 22 429 -25 74 -88 200 -101 200 -5 0 -29 -42 -54 -93z m89 -47 c61 -135 70 -287 25 -423 -23 -72 -33 -81 -43 -42 -4 14 -11 25 -16 25 -5 0 -12 -11 -16 -25 -10 -39 -20 -30 -43 42 -30 91 -37 200 -17 291 15 73 63 192 76 192 4 0 19 -27 34 -60z m-2889 -493 c59 -78 93 -154 111 -244 24 -125 14 -215 -17 -164 -19 30 -29 26 -29 -11 l-1 -33 -35 40 c-43 48 -86 130 -110 211 -19 61 -25 257 -10 283 10 16 34 -5 91 -82z m5809 -34 c0 -154 -43 -283 -128 -378 l-35 -40 -1 33 c0 37 -10 41 -29 11 -10 -18 -15 -19 -22 -8 -25 39 5 219 52 314 40 83 137 201 152 186 6 -6 11 -56 11 -118z m-2968 -80 c13 -17 15 -17 28 0 7 9 16 17 19 17 8 0 37 -91 37 -117 0 -23 -59 -153 -70 -153 -11 0 -70 130 -70 153 0 26 29 117 37 117 3 0 12 -8 19 -17z m-92 -197 c47 -36 66 -74 66 -135 0 -39 -6 -56 -27 -82 -54 -63 -132 -73 -173 -22 -24 31 -26 70 -3 95 20 22 39 23 47 3 7 -20 36 -19 36 2 0 24 -30 53 -56 53 -36 0 -54 -10 -69 -41 -52 -100 47 -213 158 -179 39 11 106 67 120 100 6 13 8 13 14 0 14 -33 81 -89 120 -100 84 -26 173 37 173 121 0 33 -21 75 -44 91 -33 23 -96 -6 -96 -44 0 -22 28 -24 36 -3 13 34 64 -2 64 -45 0 -64 -69 -103 -132 -77 -56 24 -88 70 -88 128 0 96 61 160 158 167 153 10 274 -147 244 -316 -16 -87 -28 -112 -55 -112 -13 0 -34 -10 -46 -21 -20 -19 -22 -28 -17 -67 6 -42 4 -47 -34 -84 -29 -29 -45 -38 -57 -33 -40 17 -60 16 -86 -6 -23 -17 -28 -28 -25 -57 3 -34 0 -38 -60 -75 l-62 -39 -62 39 c-58 36 -62 41 -62 77 -1 30 -7 43 -29 59 -25 19 -30 20 -64 8 -36 -14 -37 -13 -75 27 -35 38 -37 44 -32 85 6 39 4 46 -21 65 -15 12 -36 22 -47 22 -21 0 -35 30 -50 110 -32 168 91 328 244 318 42 -3 65 -11 92 -32z m-2538 -293 c16 -38 16 -69 1 -137 l-12 -50 -51 50 c-58 54 -80 109 -68 170 6 32 8 34 23 19 24 -21 28 -19 36 13 l7 27 25 -30 c13 -16 31 -44 39 -62z m5361 57 c6 -24 11 -25 34 -5 15 15 17 13 23 -19 12 -61 -10 -116 -67 -170 l-52 -50 -13 55 c-17 71 -10 122 24 170 30 44 43 49 51 19z m-5041 -99 c96 -44 155 -139 162 -260 4 -76 4 -76 -27 -93 -41 -23 -50 -61 -23 -98 l22 -29 -28 -53 c-26 -49 -31 -53 -71 -59 -64 -8 -86 -46 -60 -103 11 -22 7 -30 -35 -79 -46 -54 -47 -55 -84 -46 -108 27 -112 29 -112 54 0 26 -42 65 -70 65 -10 0 -29 -9 -44 -21 l-27 -21 -54 28 c-50 25 -55 30 -55 61 0 47 -32 77 -75 70 -40 -7 -60 12 -102 93 -24 47 -28 67 -28 135 0 92 21 141 79 192 125 110 311 30 293 -126 -10 -91 -121 -147 -174 -88 -28 29 -33 66 -13 97 7 12 12 12 34 0 29 -15 42 -9 33 15 -11 27 -54 40 -82 25 -54 -29 -54 -120 0 -170 38 -35 119 -39 165 -8 38 26 80 91 80 126 0 12 5 22 10 22 6 0 10 -4 10 -9 0 -16 103 -61 140 -61 75 0 146 79 136 149 -7 46 -51 91 -90 91 -36 0 -66 -25 -66 -57 0 -29 30 -32 37 -3 7 28 38 25 62 -6 24 -31 26 -43 9 -79 -35 -78 -164 -68 -210 16 -26 46 -21 133 10 176 48 68 163 93 248 54z m4831 -2 c59 -29 86 -70 91 -138 4 -68 -19 -116 -69 -143 -61 -33 -133 -16 -157 37 -17 36 -15 48 9 79 24 31 55 34 62 6 7 -27 37 -26 37 2 0 32 -29 58 -65 58 -41 0 -82 -40 -91 -88 -13 -70 59 -152 136 -152 37 0 140 45 140 61 0 5 5 9 10 9 6 0 10 -10 10 -22 0 -35 42 -100 80 -126 29 -20 44 -23 88 -20 60 5 95 31 113 85 18 57 -16 122 -65 123 -23 0 -56 -27 -56 -47 0 -16 22 -17 38 -1 9 10 16 9 28 -4 43 -43 -1 -118 -68 -118 -30 0 -47 8 -76 34 -35 32 -37 38 -37 94 0 65 16 97 67 135 33 25 105 33 153 17 48 -16 101 -63 128 -114 34 -64 31 -183 -6 -256 -42 -81 -62 -100 -102 -93 -43 7 -75 -23 -75 -70 0 -31 -5 -36 -55 -61 l-54 -28 -27 21 c-15 12 -36 21 -47 21 -28 0 -67 -38 -67 -66 0 -24 -5 -26 -112 -53 -36 -9 -38 -8 -83 45 -46 53 -46 54 -33 89 19 54 -3 88 -62 95 -41 5 -46 8 -72 58 l-28 53 22 29 c27 37 18 75 -23 98 -31 17 -31 17 -27 92 5 90 31 152 83 205 75 74 177 95 262 54z m-2821 -260 c30 -29 54 -58 54 -64 0 -6 -44 -32 -97 -59 -108 -53 -261 -150 -337 -214 -38 -31 -56 -40 -73 -36 -13 4 -33 0 -46 -9 -21 -14 -31 -13 -108 9 -92 27 -234 54 -283 54 -41 0 -153 -54 -272 -131 -65 -42 -101 -60 -115 -56 -11 3 -33 1 -48 -4 -23 -8 -49 -3 -143 30 -127 43 -267 76 -370 87 -39 4 -68 12 -68 18 -1 21 65 155 76 156 6 0 19 8 28 19 16 17 21 18 83 5 173 -37 325 -94 341 -129 27 -60 108 -52 126 12 9 28 25 41 120 92 173 93 182 96 283 82 151 -21 253 -43 253 -54 0 -22 34 -47 63 -47 37 0 67 25 67 56 0 36 150 156 293 235 44 24 52 25 83 14 19 -6 60 -36 90 -66z m916 -21 c117 -80 178 -135 178 -161 0 -30 29 -57 62 -57 27 0 61 24 69 49 2 6 77 23 167 38 191 32 181 33 368 -68 95 -51 111 -64 120 -92 18 -62 99 -70 126 -12 16 35 168 92 341 129 62 13 67 12 83 -5 9 -11 22 -19 28 -19 11 -1 77 -135 76 -155 0 -6 -42 -16 -92 -23 -113 -14 -260 -50 -374 -92 -70 -26 -90 -30 -114 -22 -16 6 -38 8 -49 5 -14 -4 -50 14 -115 56 -119 77 -231 131 -272 131 -49 0 -191 -27 -283 -54 -77 -22 -87 -23 -108 -9 -13 9 -33 13 -46 9 -17 -4 -35 5 -73 36 -76 64 -229 161 -336 214 -54 27 -98 53 -98 59 0 19 109 119 142 130 40 14 73 0 200 -87z m-782 -108 c19 -4 64 -25 100 -48 36 -23 71 -42 79 -42 8 0 47 20 87 45 39 25 82 45 94 45 12 0 30 5 41 10 29 16 249 -100 386 -204 97 -74 108 -85 105 -110 -4 -35 31 -76 65 -76 26 0 73 41 73 63 0 17 156 61 281 78 l86 13 77 -37 c43 -20 115 -61 162 -92 73 -47 84 -58 84 -83 0 -66 79 -96 119 -46 12 15 21 33 21 40 0 29 269 111 442 135 126 17 144 7 288 -164 4 -5 43 1 86 12 49 13 100 19 134 16 48 -3 61 -9 106 -49 65 -57 187 -202 254 -302 49 -71 51 -77 39 -105 -10 -26 -9 -34 8 -57 29 -39 86 -43 109 -8 14 23 23 26 70 26 64 0 274 -27 306 -39 31 -12 137 -118 210 -209 48 -61 56 -77 48 -92 -14 -25 -3 -68 20 -80 36 -19 77 -12 98 17 19 26 25 27 121 31 160 7 450 -30 459 -58 2 -6 15 -21 27 -33 13 -12 39 -58 57 -102 38 -90 41 -92 155 -94 39 -1 75 -6 78 -11 4 -6 22 -17 40 -25 30 -12 42 -30 99 -147 78 -161 153 -388 128 -388 -14 0 -32 -48 -25 -67 18 -51 67 -68 110 -38 19 13 27 13 79 -5 33 -11 109 -45 170 -75 l111 -54 42 -80 c22 -43 57 -120 76 -171 33 -84 34 -92 20 -113 -30 -43 -13 -92 38 -110 19 -7 67 11 67 25 0 25 226 -50 386 -127 127 -61 131 -64 157 -115 20 -39 27 -67 28 -113 2 -102 5 -107 96 -147 115 -50 143 -76 159 -154 22 -105 37 -280 32 -387 -4 -96 -5 -102 -31 -121 -29 -21 -36 -62 -17 -98 12 -23 55 -34 80 -20 15 8 31 0 92 -48 40 -32 103 -89 140 -127 74 -75 78 -86 98 -260 16 -149 14 -180 -16 -199 -35 -23 -31 -80 8 -109 23 -17 31 -18 57 -8 28 12 34 10 122 -50 101 -70 263 -210 304 -264 36 -46 40 -116 14 -219 -11 -43 -17 -82 -12 -86 109 -92 135 -119 154 -157 21 -42 21 -50 10 -131 -24 -172 -107 -442 -136 -442 -7 0 -24 -9 -39 -21 -51 -40 -21 -119 44 -119 27 0 36 -9 85 -84 67 -103 125 -222 125 -257 0 -78 -66 -349 -85 -349 -26 0 -65 -42 -65 -69 0 -38 40 -74 76 -69 25 3 36 -8 110 -105 104 -137 220 -357 204 -386 -5 -11 -10 -29 -10 -41 0 -12 -20 -55 -45 -94 -25 -40 -45 -79 -45 -86 0 -7 20 -46 45 -86 25 -39 45 -82 45 -94 0 -12 5 -30 10 -41 16 -29 -100 -249 -204 -386 -74 -97 -85 -108 -110 -105 -36 5 -76 -31 -76 -69 0 -27 39 -69 65 -69 19 0 85 -271 85 -351 0 -33 -77 -186 -139 -278 -35 -52 -46 -61 -71 -61 -65 0 -94 -79 -44 -119 15 -12 32 -21 39 -21 29 0 113 -275 136 -442 17 -126 7 -144 -164 -288 -5 -4 1 -43 12 -86 13 -49 19 -100 16 -134 -3 -48 -9 -61 -49 -106 -57 -65 -202 -187 -302 -254 -71 -49 -77 -51 -105 -39 -26 10 -34 9 -57 -8 -39 -29 -43 -86 -8 -109 30 -19 32 -50 16 -199 -20 -174 -24 -185 -98 -260 -37 -38 -100 -95 -140 -127 -62 -49 -76 -56 -93 -47 -68 36 -125 -73 -62 -119 26 -19 27 -25 31 -121 5 -106 -10 -282 -32 -385 -16 -79 -49 -112 -157 -157 -93 -38 -96 -43 -98 -146 -1 -46 -8 -74 -28 -113 -26 -51 -30 -54 -157 -115 -160 -77 -386 -152 -386 -127 0 14 -48 32 -67 25 -51 -18 -68 -67 -38 -110 14 -21 13 -29 -20 -113 -19 -51 -53 -127 -76 -170 -40 -77 -42 -79 -119 -119 -43 -23 -119 -57 -170 -76 -84 -33 -92 -34 -113 -20 -43 30 -92 13 -110 -38 -7 -19 11 -67 25 -67 25 0 -50 -227 -127 -387 -63 -129 -65 -132 -115 -157 -38 -19 -68 -26 -113 -27 -103 -2 -107 -5 -145 -94 -18 -44 -44 -90 -57 -102 -12 -12 -25 -27 -27 -33 -9 -28 -299 -65 -458 -58 -94 3 -102 6 -123 30 -29 34 -47 39 -84 23 -34 -14 -50 -54 -33 -85 8 -15 0 -31 -48 -92 -32 -40 -89 -103 -127 -140 -75 -74 -86 -78 -260 -98 -149 -16 -180 -14 -199 16 -23 35 -80 31 -109 -8 -17 -23 -18 -31 -8 -57 12 -28 10 -34 -39 -105 -67 -100 -189 -245 -254 -302 -45 -40 -58 -46 -106 -49 -34 -3 -85 3 -134 16 -43 11 -82 17 -86 12 -92 -109 -119 -135 -157 -154 -42 -20 -50 -21 -131 -10 -167 23 -442 107 -442 136 0 25 -41 65 -68 65 -35 0 -72 -37 -72 -71 0 -23 -11 -36 -61 -70 -92 -62 -245 -139 -278 -139 -85 0 -351 66 -351 87 0 22 -47 63 -71 63 -35 0 -69 -38 -69 -76 0 -30 -9 -40 -107 -113 -124 -94 -359 -219 -376 -202 -6 6 -24 11 -40 11 -17 0 -59 18 -101 45 -40 25 -79 45 -86 45 -7 0 -46 -20 -86 -45 -39 -25 -82 -45 -94 -45 -12 0 -30 -5 -41 -10 -29 -16 -249 100 -386 204 -97 74 -108 85 -105 110 5 36 -31 76 -69 76 -27 0 -69 -39 -69 -65 0 -19 -271 -85 -349 -85 -35 0 -154 58 -257 125 -75 49 -84 58 -84 85 0 63 -77 94 -120 48 -11 -12 -20 -29 -20 -39 0 -33 -255 -114 -442 -140 -126 -17 -144 -7 -288 164 -4 5 -43 -1 -86 -12 -114 -29 -175 -23 -231 24 -63 53 -181 190 -253 295 -59 87 -61 93 -49 121 10 26 9 34 -8 57 -29 39 -86 43 -109 8 -19 -30 -50 -32 -199 -16 -174 20 -185 24 -260 98 -38 37 -95 100 -127 140 -48 61 -56 77 -48 92 14 25 3 68 -20 80 -36 19 -77 12 -98 -17 -19 -26 -25 -27 -121 -31 -106 -5 -282 10 -385 32 -79 16 -112 49 -157 157 -38 93 -43 96 -146 98 -46 1 -74 8 -113 28 -48 25 -55 33 -99 122 -84 167 -165 406 -144 420 18 11 33 49 26 68 -18 51 -67 68 -110 38 -21 -14 -29 -13 -113 20 -51 19 -128 54 -171 76 l-80 42 -54 111 c-30 61 -64 137 -75 170 -18 52 -18 60 -5 79 30 43 13 92 -38 110 -19 7 -67 -11 -67 -25 0 -25 -227 50 -388 128 -117 57 -135 69 -147 99 -8 18 -19 36 -25 40 -5 3 -10 39 -11 78 -2 114 -4 117 -94 155 -44 18 -90 43 -102 55 -12 12 -29 27 -36 34 -28 23 -61 292 -55 450 3 101 5 106 31 125 29 21 36 62 17 98 -12 23 -55 34 -80 20 -15 -8 -31 0 -92 48 -91 73 -197 179 -209 210 -12 32 -39 242 -39 306 0 47 3 56 26 70 35 23 31 80 -8 109 -23 17 -31 18 -57 8 -28 -12 -34 -10 -122 50 -101 70 -263 210 -304 264 -36 46 -40 116 -14 219 11 43 17 82 12 86 -109 92 -135 119 -154 157 -21 42 -21 50 -10 131 24 173 106 442 135 442 26 0 66 41 66 68 0 35 -37 72 -72 72 -25 0 -36 11 -83 84 -31 47 -72 119 -92 162 l-37 77 13 86 c17 125 61 281 78 281 23 0 63 47 63 74 0 31 -45 68 -79 64 -21 -3 -37 13 -107 105 -104 137 -220 357 -204 386 5 11 10 29 10 41 0 12 20 55 45 94 25 40 45 79 45 86 0 7 -20 46 -45 86 -25 39 -45 82 -45 94 0 12 -5 30 -10 41 -16 29 100 247 203 385 71 94 85 109 108 106 36 -4 79 32 79 68 0 29 -38 70 -65 70 -15 0 -60 164 -76 281 l-13 86 37 77 c20 43 61 115 92 162 43 67 59 84 78 84 36 0 77 37 77 68 0 30 -35 72 -61 72 -34 0 -114 253 -140 442 -17 126 -7 144 164 288 5 4 -1 43 -12 86 -29 114 -23 175 24 231 53 63 190 181 295 253 87 59 93 61 121 49 26 -10 34 -9 57 8 39 29 43 86 8 109 -23 14 -26 23 -26 70 0 64 27 274 39 306 12 31 118 137 209 210 61 48 77 56 92 48 25 -14 68 -3 80 20 19 36 12 77 -17 98 -26 19 -28 24 -31 125 -6 158 27 427 55 450 7 7 24 22 36 34 12 12 58 37 102 55 90 38 92 41 94 155 1 39 6 75 11 78 6 4 17 22 24 40 12 29 30 42 113 83 169 85 408 166 422 145 11 -18 49 -33 68 -26 51 18 68 67 38 110 -14 20 -13 28 11 95 14 40 49 117 76 171 l50 98 112 54 c61 30 137 64 170 75 52 18 60 18 79 5 43 -30 92 -13 110 38 7 19 -8 57 -26 68 -21 14 60 253 144 421 41 82 55 100 83 112 18 8 37 19 40 25 4 6 39 11 79 12 116 2 117 3 157 102 20 51 42 89 52 92 9 4 20 15 23 25 12 37 185 64 408 65 l159 0 20 -27 c21 -30 62 -37 98 -18 23 12 34 55 20 80 -8 15 0 31 48 92 73 91 179 197 210 209 32 12 242 39 306 39 47 0 56 -3 70 -26 23 -35 80 -31 109 8 17 23 18 31 8 57 -12 28 -10 34 49 121 72 105 190 242 253 295 56 47 117 53 231 24 43 -11 82 -17 86 -12 92 109 119 135 157 154 42 21 50 21 131 10 173 -24 442 -106 442 -135 0 -7 9 -25 21 -40 40 -50 119 -20 119 46 0 25 11 36 84 83 103 67 222 125 257 125 78 0 349 -66 349 -85 0 -27 42 -65 70 -65 36 0 72 43 68 79 -3 23 12 37 106 108 117 88 351 216 376 206 8 -3 31 -9 50 -13z m-5341 -259 c125 -75 223 -194 261 -319 25 -81 25 -87 -2 -68 -32 23 -38 20 -31 -15 l6 -31 -29 15 c-84 43 -197 177 -234 274 -23 62 -51 183 -42 183 3 0 35 -18 71 -39z m11105 -25 c-18 -89 -45 -153 -88 -219 -41 -61 -131 -149 -178 -173 l-30 -16 7 31 c7 35 0 38 -33 15 -27 -19 -27 -13 -2 68 38 124 137 244 263 320 34 21 65 38 68 38 4 0 1 -29 -7 -64z m-8366 -79 c39 -21 72 -41 72 -45 0 -4 -39 -45 -86 -92 -88 -87 -181 -200 -249 -302 -28 -43 -44 -58 -61 -58 -13 0 -29 -8 -36 -18 -11 -16 -32 -20 -123 -25 -60 -4 -150 -14 -200 -23 l-90 -17 -78 -76 c-43 -42 -104 -109 -134 -148 -41 -54 -62 -73 -79 -73 -13 0 -32 -8 -42 -17 -15 -16 -40 -18 -197 -19 -125 0 -211 -6 -280 -18 -55 -10 -104 -19 -110 -19 -11 -2 -11 18 0 109 6 47 14 68 36 92 26 27 36 31 111 37 46 4 133 5 193 3 96 -3 114 -6 139 -25 56 -44 116 -16 116 53 0 32 11 47 118 155 l117 119 167 26 167 26 27 -21 c34 -26 54 -26 88 0 22 17 26 28 24 59 -1 31 8 52 54 121 31 46 85 118 121 159 60 70 67 75 103 74 24 0 67 -14 112 -37z m5780 -38 c35 -41 89 -112 120 -158 46 -69 55 -91 54 -121 -2 -31 2 -42 24 -59 34 -26 54 -26 88 0 l27 21 167 -26 167 -26 118 -119 c106 -108 117 -123 117 -155 0 -69 60 -97 116 -53 25 19 43 22 139 25 60 2 147 1 193 -3 75 -6 85 -10 111 -37 22 -24 30 -45 36 -92 11 -91 11 -111 0 -109 -5 0 -55 9 -110 19 -69 12 -155 18 -280 18 -157 1 -182 3 -197 19 -10 9 -29 17 -42 17 -17 0 -38 19 -79 73 -30 39 -91 106 -134 148 l-78 76 -90 17 c-49 9 -139 19 -200 23 -91 5 -112 9 -123 25 -7 10 -23 18 -36 18 -17 0 -33 15 -61 58 -67 102 -161 215 -249 302 -47 47 -85 89 -83 93 1 5 34 25 72 46 51 26 81 36 110 35 37 -2 45 -8 103 -75z m-7695 -357 c60 -27 114 -83 148 -156 34 -72 36 -87 9 -111 -30 -27 -27 -78 6 -104 25 -20 26 -25 20 -77 -8 -66 -11 -74 -34 -74 -57 0 -82 -72 -41 -116 l20 -22 -28 -68 -28 -69 -74 -5 c-71 -5 -73 -4 -87 21 -25 49 -83 54 -116 9 -24 -32 -48 -37 -108 -20 -26 7 -39 18 -47 40 -16 43 -57 59 -94 38 -27 -16 -29 -16 -66 11 -90 66 -134 137 -141 232 -5 79 9 128 51 175 41 48 77 64 139 64 95 0 158 -61 158 -153 0 -42 -5 -54 -34 -83 -36 -36 -78 -44 -117 -23 -25 13 -40 50 -32 78 5 18 11 21 34 16 24 -6 29 -3 29 13 0 40 -60 43 -89 6 -25 -32 -26 -55 -6 -98 31 -65 122 -87 185 -43 45 31 70 81 70 143 l0 52 38 -14 c77 -27 147 -11 195 45 32 38 37 107 11 147 -19 28 -63 54 -94 54 -30 0 -62 -37 -58 -68 4 -34 30 -35 38 -2 5 19 12 24 30 22 61 -7 83 -90 36 -137 -26 -26 -82 -41 -120 -31 -66 16 -123 108 -111 176 24 131 170 193 308 132z m9606 -2 c46 -23 87 -78 96 -130 12 -68 -45 -160 -111 -176 -38 -10 -94 5 -120 31 -47 47 -25 130 36 137 18 2 25 -3 30 -22 8 -33 34 -32 38 2 4 31 -28 68 -58 68 -31 0 -75 -26 -94 -54 -26 -40 -21 -109 11 -147 48 -56 118 -72 196 -45 l37 14 0 -52 c0 -62 25 -112 70 -143 63 -44 154 -22 185 43 20 43 19 66 -6 98 -29 37 -89 34 -89 -6 0 -16 5 -19 29 -13 23 5 29 2 34 -16 8 -28 -7 -65 -32 -78 -39 -21 -81 -13 -117 23 -29 29 -34 41 -34 83 0 92 63 153 158 153 62 0 98 -16 139 -64 42 -47 56 -96 51 -175 -7 -95 -51 -166 -141 -232 -37 -27 -39 -27 -66 -11 -37 21 -78 5 -94 -38 -8 -22 -21 -33 -47 -40 -48 -13 -100 -13 -100 2 0 20 -32 48 -56 48 -35 0 -54 -10 -68 -39 -14 -25 -16 -26 -87 -21 l-74 5 -28 69 -28 68 20 22 c41 44 16 116 -41 116 -23 0 -26 8 -34 74 -6 52 -5 57 20 77 33 26 36 77 6 104 -26 23 -25 39 4 102 33 69 62 108 107 139 82 56 178 65 258 24z m-10041 0 c18 -11 41 -34 51 -51 17 -28 38 -145 27 -156 -2 -3 -33 10 -68 29 -51 26 -67 42 -85 78 -13 24 -23 55 -23 67 0 20 4 22 27 17 23 -6 25 -4 20 15 -7 27 8 27 51 1z m10315 -1 c-5 -19 -3 -21 20 -15 23 5 27 3 27 -17 0 -37 -43 -110 -75 -129 -17 -9 -47 -24 -69 -33 l-38 -16 7 63 c8 74 29 115 75 145 42 29 60 30 53 2z m-10161 -832 c36 -7 69 -15 73 -19 4 -4 -17 -56 -48 -115 -65 -130 -97 -208 -132 -328 -20 -71 -32 -95 -55 -113 -17 -13 -30 -29 -30 -36 0 -8 -39 -28 -87 -46 -49 -18 -132 -55 -185 -83 l-98 -50 -55 -111 c-31 -61 -66 -142 -79 -180 -16 -48 -31 -72 -44 -77 -12 -5 -28 -19 -38 -33 -10 -16 -32 -30 -58 -36 -109 -29 -236 -77 -356 -136 -73 -36 -136 -62 -139 -57 -4 4 -13 42 -20 84 -10 63 -9 81 3 111 13 31 26 40 98 70 89 38 149 58 239 81 47 12 60 12 80 1 60 -33 122 34 89 96 -7 14 7 51 68 171 l77 154 154 77 c120 61 157 75 171 68 62 -33 129 29 96 89 -11 20 -11 33 1 80 23 90 43 150 81 239 28 68 41 86 66 97 38 16 44 16 128 2z m10080 -2 c30 -12 40 -26 71 -98 32 -75 80 -221 88 -272 2 -11 -3 -35 -10 -53 -13 -30 -12 -36 6 -60 22 -29 61 -39 91 -23 16 9 48 -4 173 -67 l154 -77 77 -154 c61 -120 75 -157 68 -171 -33 -62 29 -129 89 -96 20 11 33 11 80 -1 90 -23 150 -43 239 -81 72 -30 85 -39 98 -70 12 -30 13 -48 3 -111 -7 -42 -16 -80 -20 -84 -3 -5 -66 21 -139 57 -120 59 -247 107 -356 136 -26 6 -48 20 -58 36 -10 14 -26 28 -38 33 -13 5 -28 29 -44 77 -13 38 -49 119 -79 181 l-56 112 -112 56 c-62 30 -143 66 -181 79 -48 16 -72 31 -77 44 -5 12 -19 28 -33 38 -16 10 -30 32 -36 58 -29 109 -77 236 -136 356 -36 73 -62 135 -59 139 6 5 106 26 146 30 9 0 32 -6 51 -14z m-12645 -766 c34 -11 88 -37 120 -58 62 -40 154 -134 179 -183 l16 -30 -31 7 c-35 7 -38 0 -15 -33 19 -27 13 -27 -68 -2 -125 38 -244 136 -319 261 -21 36 -39 68 -39 71 0 8 88 -10 157 -33z m15205 -36 c-76 -126 -196 -225 -320 -263 -81 -25 -87 -25 -68 2 23 33 20 40 -15 33 l-31 -7 16 30 c25 49 117 143 179 183 32 21 86 47 121 59 62 20 148 39 155 34 2 -2 -15 -34 -37 -71z m-14255 -186 c44 -23 100 -74 134 -120 27 -37 27 -39 11 -66 -21 -37 -5 -78 38 -94 22 -8 33 -21 40 -47 17 -60 12 -84 -20 -108 -22 -16 -30 -31 -30 -52 0 -31 30 -70 53 -70 10 0 12 -17 9 -67 -2 -38 -5 -73 -7 -79 -2 -6 -34 -23 -70 -38 l-68 -27 -21 21 c-12 11 -34 20 -49 20 -32 0 -67 -32 -67 -59 0 -26 -7 -29 -74 -37 -52 -6 -57 -5 -77 20 -26 33 -77 36 -104 6 -10 -11 -25 -20 -34 -20 -31 0 -139 58 -176 96 -135 134 -91 359 75 389 68 12 160 -45 176 -111 10 -38 -5 -94 -31 -120 -47 -47 -130 -25 -137 36 -2 18 3 25 22 30 33 8 32 34 -2 38 -31 4 -68 -28 -68 -58 0 -31 26 -75 54 -94 40 -26 109 -21 147 11 56 48 72 118 45 196 l-14 37 52 0 c31 0 65 7 86 19 99 52 108 191 16 235 -45 21 -68 20 -100 -5 -37 -29 -34 -89 6 -89 16 0 19 5 13 29 -5 23 -2 29 16 34 28 8 65 -7 78 -32 21 -39 13 -81 -23 -117 -29 -29 -41 -34 -82 -34 -93 0 -154 63 -154 158 0 80 42 141 120 177 45 20 172 15 217 -8z m13408 4 c77 -35 115 -95 115 -179 0 -89 -64 -152 -153 -152 -42 0 -54 5 -83 34 -36 36 -44 78 -23 117 13 25 50 40 78 32 18 -5 21 -11 16 -34 -6 -24 -3 -29 13 -29 40 0 43 60 6 89 -32 25 -55 26 -100 5 -92 -44 -83 -183 16 -235 21 -12 55 -19 86 -19 l52 0 -14 -37 c-27 -78 -11 -148 45 -196 38 -32 107 -37 147 -11 28 19 54 63 54 94 0 30 -37 62 -68 58 -34 -4 -35 -30 -2 -38 19 -5 24 -12 22 -30 -7 -61 -90 -83 -137 -36 -26 26 -41 82 -31 120 16 66 108 123 176 111 166 -30 210 -255 75 -389 -37 -38 -145 -96 -176 -96 -9 0 -24 9 -34 20 -27 30 -78 27 -104 -6 -20 -25 -25 -26 -77 -20 -66 8 -74 11 -74 34 0 57 -72 82 -116 41 l-22 -20 -68 28 -69 28 -5 74 c-5 71 -4 73 21 87 28 14 39 33 39 67 0 24 -27 57 -47 57 -16 0 -17 49 -3 100 7 26 18 39 40 47 42 16 59 57 38 93 -15 26 -15 30 -1 52 44 65 113 123 172 144 53 19 149 17 196 -5z m-13875 -133 c36 -19 52 -35 78 -86 19 -35 32 -66 29 -68 -11 -11 -128 10 -156 27 -31 19 -71 73 -71 96 0 6 9 9 21 6 19 -5 21 -3 15 20 -5 23 -3 27 17 27 12 0 43 -10 67 -22z m14204 -5 c-6 -23 -4 -25 15 -20 12 3 21 0 21 -6 0 -23 -40 -77 -71 -96 -28 -17 -145 -38 -156 -27 -3 2 10 33 29 68 26 51 42 67 78 86 24 12 55 22 67 22 20 0 22 -4 17 -27z m-13751 -728 c0 -6 -9 -55 -19 -110 -12 -69 -18 -155 -18 -280 -1 -157 -3 -182 -18 -197 -10 -10 -18 -29 -18 -42 0 -17 -19 -38 -72 -79 -40 -30 -107 -91 -149 -134 l-76 -78 -17 -90 c-9 -49 -19 -139 -23 -200 -5 -91 -9 -112 -25 -123 -10 -7 -18 -23 -18 -36 0 -17 -15 -33 -57 -61 -103 -68 -216 -161 -303 -249 -47 -47 -88 -86 -92 -86 -17 0 -82 146 -82 184 -1 36 4 43 74 103 41 36 113 90 159 121 69 46 90 55 121 54 31 -2 42 2 59 24 26 34 26 54 0 88 l-21 27 26 167 26 167 119 118 c108 106 123 117 155 117 69 0 97 60 54 116 -19 23 -23 43 -26 126 -3 54 -1 141 3 194 7 89 9 96 38 124 22 21 43 30 67 31 19 1 49 5 65 9 38 10 70 7 68 -5z m13333 -2 c38 -4 60 -13 82 -34 28 -26 31 -35 37 -123 4 -53 6 -140 3 -194 -3 -83 -7 -103 -26 -126 -43 -56 -15 -116 54 -116 32 0 47 -11 155 -117 l119 -118 26 -167 26 -167 -21 -27 c-26 -34 -26 -54 0 -88 17 -22 28 -26 59 -24 31 1 52 -8 121 -54 46 -31 118 -85 159 -121 70 -60 75 -67 74 -103 0 -38 -65 -184 -82 -184 -4 0 -45 39 -92 86 -87 88 -201 182 -302 249 -42 27 -58 44 -58 60 0 12 -8 29 -18 39 -15 13 -20 37 -26 124 -3 59 -13 148 -22 197 l-17 90 -76 78 c-42 43 -109 104 -148 134 -54 41 -73 62 -73 79 0 13 -8 32 -18 42 -15 15 -17 32 -14 130 4 119 -10 291 -32 398 -7 35 -11 66 -7 69 3 4 19 4 36 0 16 -3 53 -9 81 -12z m-14545 -1467 c79 -40 99 -61 92 -101 -7 -43 23 -75 70 -75 31 0 36 -5 61 -55 l28 -54 -21 -27 c-12 -15 -21 -34 -21 -44 0 -28 39 -70 65 -70 25 0 27 -4 54 -112 9 -36 8 -38 -45 -83 -53 -46 -54 -46 -89 -33 -54 19 -88 -3 -95 -62 -5 -41 -8 -46 -58 -72 l-53 -28 -29 22 c-37 27 -75 18 -98 -23 -17 -31 -17 -31 -93 -27 -121 7 -216 66 -260 162 -38 85 -13 200 54 248 43 31 130 36 176 10 84 -46 94 -175 16 -210 -36 -17 -48 -15 -79 9 -31 24 -34 55 -6 62 27 7 26 37 -2 37 -32 0 -58 -29 -58 -65 0 -40 44 -84 91 -91 70 -10 149 61 149 136 0 37 -45 140 -61 140 -5 0 -9 5 -9 10 0 6 10 10 23 10 34 0 99 42 125 80 31 46 27 127 -8 165 -50 54 -141 54 -170 0 -15 -28 -2 -71 25 -82 24 -9 30 4 15 33 -12 22 -12 27 0 34 31 20 68 15 98 -13 58 -53 2 -164 -89 -174 -156 -18 -236 168 -126 293 53 61 114 85 208 80 46 -2 81 -11 120 -30z m15895 6 c22 -11 55 -36 71 -56 110 -125 30 -311 -126 -293 -93 10 -146 120 -87 177 28 26 71 29 93 8 12 -13 13 -19 2 -36 -15 -24 -7 -37 16 -29 27 11 40 54 25 82 -29 54 -120 54 -170 0 -35 -38 -39 -119 -8 -165 26 -38 91 -80 126 -80 12 0 22 -4 22 -10 0 -5 -4 -10 -9 -10 -16 0 -61 -103 -61 -140 0 -75 79 -146 149 -136 46 7 91 51 91 90 0 36 -25 66 -57 66 -29 0 -32 -30 -3 -37 28 -7 25 -38 -6 -62 -31 -24 -43 -26 -79 -9 -76 35 -69 159 12 209 45 28 134 24 180 -9 67 -48 92 -163 54 -248 -44 -96 -139 -155 -260 -162 -76 -4 -76 -4 -93 27 -23 41 -61 50 -98 23 l-29 -22 -53 28 c-49 26 -53 31 -59 71 -8 64 -46 86 -103 60 -22 -11 -30 -7 -79 35 -54 46 -55 47 -46 84 27 108 29 112 54 112 26 0 65 42 65 70 0 10 -9 29 -21 44 l-21 27 28 54 c25 50 30 55 60 55 46 0 77 34 71 76 -6 34 8 52 64 86 83 52 206 60 285 20z m-16798 -88 c75 -25 162 -76 197 -114 18 -20 18 -20 -13 -20 -37 0 -41 -10 -11 -29 18 -10 19 -15 8 -22 -39 -25 -219 5 -314 52 -73 36 -201 137 -188 149 27 28 221 18 321 -16z m17765 16 c13 -12 -114 -113 -188 -149 -95 -47 -275 -77 -314 -52 -11 7 -10 12 8 22 30 19 26 29 -11 29 -31 0 -31 0 -13 20 52 57 184 121 290 140 56 10 215 3 228 -10z m-17348 -171 c27 -8 57 -29 89 -63 l50 -51 -55 -13 c-71 -17 -122 -10 -170 24 -44 30 -49 43 -19 51 24 6 25 16 4 34 -15 12 -14 14 7 20 36 10 50 10 94 -2z m16704 2 c21 -6 22 -8 7 -20 -21 -18 -20 -28 4 -34 30 -8 25 -21 -19 -51 -48 -34 -99 -41 -169 -24 l-54 13 44 48 c57 63 121 87 187 68z m-16055 -618 c11 -104 44 -244 87 -371 33 -94 38 -120 30 -143 -5 -15 -7 -37 -4 -48 4 -14 -14 -50 -56 -115 -77 -119 -131 -231 -131 -272 0 -49 27 -191 54 -283 22 -77 23 -87 9 -108 -9 -13 -13 -33 -9 -46 4 -17 -5 -35 -36 -73 -64 -76 -161 -229 -214 -336 -27 -54 -53 -98 -59 -98 -19 0 -119 109 -130 142 -14 40 0 73 87 200 80 117 135 178 161 178 29 0 57 29 57 59 0 31 -25 71 -44 71 -14 0 -34 86 -57 253 -14 101 -11 110 82 283 51 95 64 111 92 120 64 18 72 99 12 126 -35 16 -92 168 -129 341 -13 62 -12 67 5 83 11 9 19 22 19 28 1 12 125 74 151 75 13 1 18 -13 23 -66z m15413 35 c40 -18 72 -38 73 -44 0 -6 8 -19 19 -28 17 -16 18 -21 5 -83 -36 -171 -95 -326 -129 -341 -60 -27 -52 -108 12 -126 28 -9 41 -25 92 -120 101 -187 100 -177 68 -368 -15 -90 -32 -165 -38 -167 -25 -8 -49 -42 -49 -69 0 -33 27 -62 60 -65 27 -2 79 -60 158 -175 87 -127 101 -160 87 -200 -11 -33 -111 -142 -130 -142 -6 0 -32 44 -59 98 -53 107 -150 260 -214 336 -31 38 -40 56 -36 73 4 13 0 33 -9 46 -14 21 -13 31 9 108 27 92 54 234 54 283 0 41 -54 153 -131 272 -42 65 -60 101 -56 115 3 11 1 33 -4 48 -8 23 -3 49 30 143 43 127 76 267 87 371 4 38 12 67 18 67 6 0 43 -14 83 -32z m-16052 -1761 c29 -10 41 -21 46 -41 14 -51 39 -69 87 -62 40 5 46 3 84 -32 40 -38 41 -39 28 -76 -11 -34 -10 -41 8 -65 15 -20 28 -26 58 -27 36 0 41 -4 76 -59 21 -32 38 -61 38 -64 0 -3 -17 -33 -38 -65 -35 -56 -40 -60 -76 -60 -30 -1 -43 -7 -58 -27 -18 -24 -19 -31 -8 -65 13 -37 12 -38 -28 -76 -38 -35 -44 -37 -85 -32 -38 5 -47 3 -66 -17 -11 -12 -21 -33 -21 -46 0 -27 -25 -39 -112 -55 -169 -30 -326 91 -316 244 7 97 71 158 167 158 39 0 56 -6 82 -27 63 -54 73 -132 22 -173 -31 -24 -70 -26 -95 -3 -22 20 -23 39 -3 47 20 7 19 36 -2 36 -39 0 -69 -62 -45 -96 16 -23 58 -44 91 -44 84 0 147 89 121 173 -11 39 -67 106 -100 120 -13 6 -13 8 0 14 33 14 89 81 100 120 25 83 -37 173 -119 173 -38 0 -86 -23 -95 -45 -17 -44 8 -95 46 -95 22 0 24 28 3 36 -34 13 2 64 45 64 64 0 103 -69 77 -132 -24 -56 -70 -88 -128 -88 -96 0 -160 61 -167 158 -12 176 189 296 383 229z m16820 -1 c60 -25 103 -66 131 -122 22 -44 26 -64 22 -108 -8 -96 -72 -156 -167 -156 -39 0 -56 6 -82 27 -63 54 -73 132 -22 173 31 24 70 26 95 3 22 -20 23 -39 3 -47 -20 -7 -19 -36 2 -36 39 0 69 62 45 96 -16 23 -58 44 -91 44 -84 0 -147 -89 -121 -173 11 -39 67 -106 100 -120 13 -6 13 -8 0 -14 -33 -14 -89 -81 -100 -120 -36 -119 99 -223 189 -147 20 16 31 35 31 52 0 31 -26 62 -52 62 -22 0 -24 -28 -3 -36 34 -13 -2 -64 -45 -64 -64 0 -103 69 -77 132 24 56 70 88 128 88 96 0 160 -61 167 -158 10 -153 -147 -274 -316 -244 -82 15 -112 28 -112 50 0 11 -10 32 -22 47 -19 25 -26 27 -66 21 -42 -6 -47 -4 -84 34 -29 29 -38 45 -33 57 17 40 16 60 -6 87 -18 23 -28 27 -57 24 -32 -4 -37 -1 -69 49 -18 29 -36 59 -39 66 -2 7 13 39 33 72 36 55 41 59 77 59 30 1 43 7 59 29 19 25 20 30 8 64 -14 36 -13 37 27 75 38 35 44 37 85 32 50 -7 74 9 84 57 7 35 6 35 74 54 62 17 150 13 204 -9z m-17552 -367 c72 -23 81 -33 42 -43 -14 -4 -25 -11 -25 -16 0 -5 11 -12 25 -16 39 -10 30 -20 -42 -43 -91 -30 -200 -37 -291 -17 -73 15 -192 63 -192 76 0 12 117 61 183 76 84 19 213 12 300 -17z m18350 16 c69 -14 187 -62 187 -75 0 -13 -119 -61 -192 -76 -91 -20 -200 -13 -291 17 -72 23 -81 33 -42 43 14 4 25 11 25 16 0 5 -11 12 -25 16 -40 10 -30 20 43 42 112 35 189 40 295 17z m-17978 -37 c36 -18 65 -35 65 -39 0 -10 -134 -69 -157 -69 -23 0 -113 30 -113 37 0 3 8 12 18 19 16 13 16 15 -2 29 -23 18 -19 23 31 40 58 21 87 18 158 -17z m17468 16 c52 -18 55 -21 30 -40 -17 -13 -17 -15 0 -28 9 -7 17 -16 17 -19 0 -8 -91 -37 -117 -37 -23 0 -153 59 -153 70 0 11 126 70 151 70 14 0 46 -7 72 -16z m-16739 -411 c53 -108 150 -261 214 -337 31 -38 40 -56 36 -73 -4 -13 0 -33 9 -46 14 -21 13 -31 -9 -108 -27 -92 -54 -234 -54 -283 0 -41 54 -153 131 -272 42 -65 60 -101 56 -115 -3 -11 -1 -33 4 -48 8 -23 3 -49 -30 -143 -43 -127 -76 -267 -87 -370 -4 -39 -12 -68 -18 -68 -21 -1 -155 65 -156 76 0 6 -8 19 -19 28 -17 16 -18 21 -5 83 37 173 94 325 129 341 58 27 50 108 -12 126 -28 9 -41 25 -92 120 -93 173 -96 182 -82 283 27 190 41 248 64 258 54 24 42 116 -16 123 -32 4 -82 58 -165 180 -87 127 -101 160 -87 200 11 33 111 142 130 142 6 0 32 -44 59 -97z m15976 42 c29 -30 59 -69 65 -87 14 -40 0 -73 -87 -200 -79 -115 -131 -173 -158 -175 -32 -3 -60 -32 -60 -62 0 -31 25 -71 44 -71 14 0 34 -86 57 -253 14 -101 11 -110 -82 -283 -52 -95 -65 -113 -89 -118 -64 -12 -77 -92 -20 -124 35 -20 74 -111 115 -267 29 -112 31 -148 10 -165 -8 -7 -15 -18 -15 -24 -1 -11 -134 -77 -156 -76 -6 0 -14 29 -18 68 -11 103 -44 243 -87 370 -33 94 -38 120 -30 143 5 15 7 37 4 48 -4 14 14 50 56 115 77 119 131 231 131 272 0 49 -27 191 -54 283 -22 77 -23 87 -9 108 9 13 13 33 9 46 -4 17 5 35 36 73 64 76 161 229 214 337 27 53 53 97 59 97 6 0 35 -25 65 -55z m-16008 -1875 c23 -40 61 -49 98 -22 l29 22 53 -28 c50 -26 53 -31 58 -72 7 -59 41 -81 95 -62 35 13 36 13 89 -33 53 -45 54 -47 45 -83 -27 -108 -29 -112 -54 -112 -26 0 -65 -42 -65 -70 0 -10 9 -29 21 -44 l21 -27 -28 -54 c-25 -50 -30 -55 -61 -55 -47 0 -77 -32 -70 -75 7 -40 -12 -60 -93 -102 -73 -37 -192 -40 -256 -6 -140 74 -166 241 -50 327 21 16 42 21 88 21 56 0 62 -2 94 -37 43 -48 47 -102 10 -138 -28 -26 -71 -29 -93 -8 -12 13 -13 19 -2 36 15 24 7 37 -16 29 -27 -11 -40 -54 -25 -82 29 -53 120 -54 170 0 30 32 38 110 16 153 -21 41 -76 82 -120 89 -20 3 -36 10 -36 14 0 5 4 9 9 9 16 0 61 103 61 140 0 75 -79 146 -149 136 -46 -7 -91 -51 -91 -90 0 -36 25 -66 57 -66 29 0 32 30 3 37 -28 7 -25 38 6 62 31 24 43 26 79 9 53 -24 70 -96 37 -157 -51 -95 -206 -95 -269 0 -46 70 -44 165 7 241 55 82 143 126 255 127 56 1 61 -1 77 -29z m16132 0 c132 -63 191 -202 135 -317 -29 -59 -70 -86 -138 -91 -68 -4 -116 19 -143 69 -33 61 -16 133 37 157 36 17 48 15 79 -9 31 -24 34 -55 6 -62 -27 -7 -26 -37 2 -37 32 0 58 29 58 65 0 40 -44 84 -91 91 -70 10 -149 -61 -149 -136 0 -37 45 -140 61 -140 5 0 9 -4 9 -9 0 -4 -16 -11 -36 -14 -44 -7 -99 -48 -120 -89 -22 -43 -14 -121 16 -153 50 -54 141 -53 170 0 15 28 2 71 -25 82 -23 8 -31 -5 -16 -29 29 -47 -50 -70 -95 -28 -59 57 -6 167 87 177 156 18 236 -168 126 -293 -51 -58 -100 -79 -192 -79 -68 0 -88 4 -135 28 -81 42 -100 62 -93 102 7 43 -23 75 -70 75 -31 0 -36 5 -61 55 l-28 54 21 27 c12 15 21 34 21 44 0 28 -39 70 -65 70 -25 0 -27 4 -54 112 -9 37 -8 38 46 84 49 42 57 46 79 35 57 -26 95 -4 103 60 6 40 10 45 59 71 l53 28 29 -22 c37 -27 75 -18 98 23 17 31 17 31 93 27 52 -3 90 -12 123 -28z m-16390 -453 l50 -12 -50 -51 c-54 -58 -109 -80 -170 -68 -32 6 -34 8 -19 23 19 22 19 31 1 31 -27 0 -29 22 -5 42 59 47 104 55 193 35z m16569 -1 c18 -8 46 -26 62 -39 l30 -25 -27 -7 c-32 -8 -34 -12 -13 -36 15 -15 13 -17 -19 -23 -61 -12 -116 10 -170 68 l-50 51 50 12 c68 15 99 15 137 -1z m-15773 -152 c87 -88 201 -182 303 -249 42 -28 57 -44 57 -61 0 -13 8 -29 18 -36 16 -11 20 -32 25 -123 4 -60 14 -150 23 -200 l17 -90 76 -78 c42 -43 109 -104 149 -134 53 -41 72 -62 72 -79 0 -13 8 -32 18 -42 15 -15 17 -40 18 -197 0 -125 6 -211 18 -280 10 -55 19 -104 19 -110 2 -11 -18 -11 -109 0 -47 6 -68 14 -92 36 -28 26 -31 35 -37 121 -4 51 -5 138 -4 193 3 86 7 105 27 129 43 56 15 116 -54 116 -32 0 -47 11 -155 118 l-119 117 -26 167 -26 167 21 27 c26 34 26 54 0 88 -17 21 -28 26 -58 25 -45 -3 -130 49 -266 162 -86 72 -90 77 -89 115 0 38 65 184 82 184 4 0 45 -39 92 -86z m14977 14 c23 -46 37 -88 37 -112 1 -38 -3 -43 -89 -115 -136 -113 -221 -165 -266 -162 -30 1 -41 -4 -58 -25 -26 -34 -26 -54 0 -88 l21 -27 -26 -167 -26 -167 -119 -117 c-108 -107 -123 -118 -155 -118 -69 0 -97 -60 -54 -116 19 -23 23 -43 26 -126 3 -54 1 -141 -3 -194 -6 -88 -9 -97 -37 -123 -24 -22 -45 -30 -92 -36 -91 -11 -111 -11 -109 0 0 6 9 55 19 110 12 69 18 155 18 280 1 157 3 182 19 197 9 10 17 29 17 42 0 17 19 38 73 79 39 30 106 91 148 134 l76 78 17 90 c9 50 19 138 22 197 6 87 11 111 26 124 10 10 18 27 18 39 0 16 16 33 58 60 101 67 215 161 302 249 47 47 88 86 92 86 4 0 24 -33 45 -72z m-16098 43 c11 -7 10 -12 -8 -22 -30 -19 -26 -29 12 -29 l32 -1 -40 -35 c-48 -43 -130 -86 -211 -110 -67 -21 -267 -25 -285 -7 -15 15 104 112 187 153 96 47 273 76 313 51z m17256 -6 c42 -8 105 -28 140 -46 83 -40 201 -137 186 -152 -18 -18 -218 -14 -285 7 -81 24 -163 67 -211 110 l-40 35 33 1 c37 0 41 10 11 29 -51 31 39 41 166 16z m-15391 -1774 c22 -4 32 -14 38 -36 14 -56 72 -73 114 -35 l21 21 68 -27 c36 -15 68 -32 70 -38 2 -6 5 -41 7 -78 3 -51 1 -68 -9 -68 -23 0 -53 -39 -53 -70 0 -21 8 -36 30 -52 32 -24 37 -48 20 -108 -7 -26 -18 -39 -40 -47 -43 -16 -59 -57 -38 -94 16 -27 16 -29 -11 -66 -66 -90 -137 -134 -232 -141 -79 -5 -128 9 -176 51 -44 39 -63 82 -63 144 0 90 63 153 153 153 42 0 54 -5 83 -34 36 -36 44 -78 23 -117 -13 -25 -50 -40 -78 -32 -18 5 -21 11 -16 34 6 24 3 29 -13 29 -21 0 -32 -18 -32 -50 0 -23 45 -60 72 -60 34 0 83 29 101 59 57 96 -25 212 -151 213 l-49 0 13 36 c27 77 11 148 -45 195 -38 32 -107 37 -147 11 -28 -19 -54 -63 -54 -94 0 -30 37 -62 68 -58 34 4 35 30 2 38 -19 5 -24 12 -22 30 7 61 90 83 137 36 26 -26 41 -82 31 -120 -16 -66 -108 -123 -176 -111 -166 30 -210 255 -75 389 37 38 145 96 176 96 9 0 24 -9 34 -20 26 -29 79 -27 102 5 19 25 53 30 117 16z m13468 -16 c25 -32 77 -34 103 -5 10 11 25 20 34 20 31 0 139 -58 176 -96 135 -134 91 -359 -75 -389 -68 -12 -160 45 -176 111 -10 38 5 94 31 120 43 43 128 27 135 -26 4 -30 0 -39 -22 -42 -32 -4 -29 -32 4 -36 31 -4 68 28 68 58 0 31 -26 75 -54 94 -40 26 -109 21 -147 -11 -56 -47 -72 -118 -45 -195 l13 -36 -49 0 c-126 -1 -208 -117 -151 -213 18 -30 67 -59 101 -59 27 0 72 37 72 60 0 32 -11 50 -32 50 -16 0 -19 -5 -13 -29 5 -23 2 -29 -16 -34 -28 -8 -65 7 -78 32 -21 39 -13 81 23 117 29 29 41 34 83 34 90 0 153 -63 153 -153 0 -62 -19 -105 -63 -144 -48 -42 -97 -56 -176 -51 -95 7 -166 51 -232 141 -27 37 -27 39 -11 66 21 37 5 78 -38 94 -22 8 -33 21 -40 47 -13 48 -13 100 2 100 20 0 48 32 48 56 0 35 -10 54 -39 68 -25 14 -26 16 -21 87 l5 74 69 28 68 28 22 -20 c44 -41 110 -19 118 39 2 18 11 27 33 31 66 14 96 10 117 -16z m-12993 -414 c117 -60 226 -104 340 -137 63 -18 91 -31 105 -50 10 -14 28 -29 38 -33 13 -5 28 -31 44 -77 13 -38 49 -119 79 -181 l56 -112 112 -56 c62 -30 143 -66 181 -79 48 -16 72 -31 77 -44 5 -12 19 -28 33 -38 16 -10 30 -32 36 -58 29 -109 77 -236 136 -356 36 -73 62 -136 57 -139 -4 -4 -42 -13 -84 -20 -63 -10 -81 -9 -111 3 -31 13 -40 26 -70 98 -38 89 -59 150 -81 238 -11 44 -11 61 -1 85 26 64 -34 118 -96 85 -14 -7 -51 7 -171 68 l-154 77 -77 154 c-61 120 -75 157 -68 171 33 62 -29 129 -89 96 -20 -11 -33 -11 -80 1 -90 23 -150 43 -239 81 -72 30 -85 39 -98 71 -12 30 -13 47 -3 106 13 84 16 95 25 95 4 0 51 -22 103 -49z m12528 -31 c16 -92 4 -144 -38 -165 -55 -29 -187 -77 -270 -100 -74 -20 -89 -21 -110 -9 -44 24 -99 -9 -99 -61 0 -17 5 -36 10 -41 7 -7 -15 -61 -67 -165 l-78 -154 -154 -77 c-125 -63 -157 -76 -173 -67 -30 16 -69 6 -91 -23 -18 -24 -19 -30 -6 -60 7 -18 12 -42 10 -53 -8 -49 -53 -188 -86 -268 -33 -77 -41 -89 -73 -103 -30 -12 -48 -13 -111 -3 -42 7 -80 16 -85 20 -5 4 14 52 42 106 61 119 105 227 138 342 18 63 31 91 50 105 14 10 29 28 33 38 5 13 31 28 77 44 38 13 119 49 181 79 l112 56 56 112 c30 62 66 143 79 181 16 46 31 72 44 77 10 4 28 19 38 33 14 19 39 32 94 47 104 29 260 91 355 143 44 24 86 43 94 42 10 -1 19 -25 28 -76z m-13277 -77 c0 -5 -15 -35 -33 -68 -25 -47 -41 -65 -77 -82 -24 -13 -55 -23 -67 -23 -20 0 -22 4 -17 27 6 23 4 25 -15 20 -12 -3 -21 0 -21 6 0 21 38 76 66 93 36 24 164 45 164 27z m14055 -22 c31 -18 75 -74 75 -97 0 -7 -8 -10 -21 -7 -19 5 -21 3 -15 -20 5 -23 3 -27 -17 -27 -12 0 -43 10 -67 23 -36 17 -52 35 -77 82 -18 33 -33 64 -33 68 0 14 123 -3 155 -22z m-14379 -183 c-23 -32 -20 -38 15 -31 l31 6 -16 -30 c-43 -84 -171 -192 -276 -233 -58 -23 -180 -51 -180 -42 0 3 18 35 39 71 74 123 193 222 315 261 82 26 91 25 72 -2z m14616 2 c125 -38 244 -136 319 -261 21 -36 39 -68 39 -71 0 -9 -121 19 -177 40 -102 39 -236 152 -279 235 l-16 30 31 -6 c35 -7 38 -1 15 31 -19 27 -13 27 68 2z m-11976 -1105 c6 -2 23 -34 38 -70 l27 -68 -21 -21 c-39 -42 -16 -116 36 -116 29 0 32 -5 40 -74 6 -52 5 -57 -20 -77 -33 -26 -36 -77 -6 -104 11 -10 20 -25 20 -34 0 -31 -58 -139 -96 -176 -134 -135 -359 -91 -389 75 -12 68 45 160 111 176 38 10 94 -5 120 -31 47 -47 25 -130 -36 -137 -18 -2 -25 3 -30 22 -8 33 -34 32 -38 -2 -4 -31 28 -68 58 -68 31 0 75 26 94 54 26 40 21 109 -11 147 -48 56 -118 72 -195 45 l-38 -14 0 52 c0 31 -7 65 -19 86 -52 99 -191 108 -235 16 -21 -45 -20 -68 5 -100 29 -37 89 -34 89 6 0 16 -5 19 -29 13 -23 -5 -29 -2 -34 16 -8 28 7 65 32 78 39 21 81 13 117 -23 29 -29 34 -41 34 -82 0 -118 -117 -189 -233 -140 -41 17 -91 74 -107 122 -16 48 -8 159 14 203 22 42 92 119 129 142 27 16 31 16 57 1 36 -21 77 -4 93 38 8 22 21 33 47 40 60 17 84 12 108 -20 16 -22 31 -30 52 -30 31 0 70 30 70 53 0 10 17 12 68 9 37 -2 72 -5 78 -7z m9437 -37 c31 -33 107 -13 107 29 0 16 49 17 100 3 26 -7 39 -18 47 -40 16 -43 57 -59 94 -38 27 16 29 16 66 -11 90 -66 134 -137 141 -232 5 -79 -9 -128 -51 -176 -39 -44 -82 -63 -144 -63 -90 0 -153 63 -153 154 0 41 5 53 34 82 36 36 78 44 117 23 25 -13 40 -50 32 -78 -5 -18 -11 -21 -34 -16 -24 6 -29 3 -29 -13 0 -40 60 -43 89 -6 25 32 26 55 5 100 -44 92 -183 83 -235 -16 -12 -21 -19 -55 -19 -86 l0 -52 -37 14 c-78 27 -148 11 -196 -45 -32 -38 -37 -107 -11 -147 19 -28 63 -54 94 -54 30 0 62 37 58 68 -4 34 -30 35 -38 2 -5 -19 -12 -24 -30 -22 -39 4 -60 31 -60 74 0 48 32 84 84 93 50 10 84 -1 122 -39 114 -114 22 -290 -151 -290 -111 0 -201 63 -256 178 -34 72 -36 87 -9 111 30 27 27 78 -6 104 -25 20 -26 25 -20 77 8 67 11 74 37 74 27 0 59 35 59 67 0 15 -9 37 -21 49 l-20 22 28 68 28 69 70 5 c53 4 72 2 80 -9 6 -8 18 -23 28 -33z m-9045 -239 c61 -6 161 -10 224 -7 98 3 115 1 130 -14 10 -10 29 -18 42 -18 17 0 38 -19 79 -72 30 -40 91 -107 134 -149 l78 -76 90 -17 c50 -9 140 -19 200 -23 91 -5 112 -9 123 -25 7 -10 23 -18 36 -18 17 0 33 -15 61 -57 67 -102 161 -216 249 -303 47 -47 86 -88 86 -92 0 -17 -146 -82 -184 -82 -36 -1 -43 4 -103 74 -36 41 -90 113 -121 159 -46 69 -55 90 -54 121 2 31 -2 42 -24 59 -34 26 -54 26 -88 0 l-27 -21 -167 26 -167 26 -117 119 c-107 108 -118 123 -118 155 0 69 -60 97 -116 54 -23 -19 -43 -23 -126 -26 -54 -3 -141 -1 -194 3 -89 7 -96 9 -124 38 -19 21 -30 43 -30 62 0 17 -5 50 -11 74 -15 67 -11 71 64 55 35 -7 114 -18 175 -25z m8723 -29 c-6 -28 -11 -63 -11 -78 0 -16 -12 -40 -30 -59 -28 -29 -35 -31 -124 -38 -53 -4 -140 -6 -194 -3 -83 3 -103 7 -126 26 -56 43 -116 15 -116 -54 0 -32 -11 -47 -117 -155 l-118 -119 -167 -26 -167 -26 -27 21 c-34 26 -54 26 -88 0 -21 -17 -26 -28 -25 -58 3 -45 -49 -130 -162 -266 -72 -86 -77 -90 -115 -89 -38 0 -184 65 -184 82 0 4 39 45 86 92 88 87 182 201 249 303 28 42 44 57 61 57 13 0 29 8 36 18 11 16 32 20 123 25 61 4 151 14 200 23 l90 17 78 76 c43 42 104 109 134 149 41 53 62 72 79 72 13 0 32 8 42 18 15 15 32 17 130 14 117 -4 293 10 397 32 33 7 64 10 69 5 4 -4 3 -30 -3 -59z m-9536 -342 c-8 -74 -29 -115 -75 -145 -42 -29 -60 -30 -53 -2 5 19 3 21 -20 15 -23 -5 -27 -3 -27 17 0 12 10 43 23 67 17 36 35 52 82 77 33 18 64 33 68 33 5 0 6 -28 2 -62z m10180 29 c47 -25 65 -41 83 -77 12 -24 22 -55 22 -67 0 -20 -4 -22 -27 -17 -23 6 -25 4 -20 -15 3 -13 0 -21 -7 -21 -23 0 -79 44 -97 75 -19 32 -36 155 -22 155 4 0 35 -15 68 -33z m-10420 -277 c-7 -34 0 -37 33 -14 27 19 27 13 2 -68 -38 -123 -138 -245 -263 -320 -34 -21 -65 -38 -68 -38 -10 0 17 120 40 179 27 71 71 137 128 193 43 41 118 98 130 98 3 0 2 -13 -2 -30z m10703 -55 c68 -62 114 -130 143 -206 22 -57 50 -179 41 -179 -3 0 -35 18 -71 39 -125 75 -223 194 -261 319 -25 81 -25 87 2 68 33 -23 40 -20 33 15 l-7 31 30 -16 c17 -9 58 -41 90 -71z m-7754 -290 c-23 -77 -9 -105 57 -114 40 -6 45 -10 71 -59 l28 -53 -22 -30 c-27 -37 -16 -77 26 -98 28 -13 28 -14 24 -90 -7 -123 -66 -218 -162 -262 -85 -38 -200 -13 -248 54 -31 43 -36 130 -10 176 45 83 169 95 208 20 19 -37 18 -52 -7 -83 -24 -31 -55 -34 -62 -6 -7 27 -37 26 -37 -2 0 -32 29 -58 65 -58 40 0 84 44 91 91 10 70 -61 149 -136 149 -37 0 -140 -45 -140 -61 0 -5 -4 -9 -10 -9 -5 0 -10 10 -10 23 0 34 -42 99 -80 125 -46 31 -127 27 -165 -8 -54 -50 -54 -141 0 -170 28 -15 71 -2 82 25 8 23 -5 31 -29 16 -47 -29 -70 50 -28 95 57 59 167 6 177 -87 18 -156 -168 -236 -293 -126 -58 51 -79 100 -79 192 0 68 4 88 28 135 42 81 62 100 102 93 43 -7 75 23 75 70 0 31 5 36 55 61 l54 28 27 -21 c15 -12 34 -21 44 -21 28 0 70 39 70 65 0 25 3 26 110 54 34 9 37 7 82 -43 35 -37 46 -56 42 -71z m4889 94 c28 -7 37 -15 37 -31 0 -29 38 -68 65 -68 12 0 34 9 49 21 l27 21 54 -28 c49 -24 55 -31 55 -58 0 -17 4 -36 8 -42 13 -20 53 -36 76 -30 29 7 54 -19 93 -94 24 -47 28 -67 28 -135 0 -92 -21 -141 -79 -192 -125 -110 -311 -30 -293 126 10 93 120 146 177 87 26 -28 29 -71 8 -93 -13 -12 -19 -13 -36 -2 -24 15 -37 7 -29 -16 11 -27 54 -40 82 -25 53 29 54 120 0 170 -32 30 -110 38 -153 16 -41 -21 -82 -76 -89 -120 -3 -20 -10 -36 -14 -36 -5 0 -9 4 -9 9 0 16 -103 61 -140 61 -75 0 -146 -79 -136 -149 7 -46 51 -91 90 -91 36 0 66 25 66 57 0 29 -30 32 -37 3 -7 -28 -38 -25 -62 6 -25 31 -26 46 -7 83 39 75 163 63 208 -20 26 -46 21 -133 -10 -176 -48 -67 -163 -92 -248 -54 -96 44 -155 139 -162 260 -4 76 -4 76 27 93 41 23 50 61 23 98 l-22 29 28 53 c26 50 31 53 72 58 59 7 81 41 62 95 -13 35 -13 36 33 89 51 60 38 58 158 25z m-4139 -31 c21 1 59 -17 122 -58 117 -76 229 -130 270 -130 49 0 191 27 283 54 77 22 87 23 108 9 13 -9 33 -13 46 -9 17 4 35 -5 73 -36 76 -64 229 -161 337 -214 53 -27 97 -53 97 -59 0 -19 -109 -119 -142 -130 -40 -14 -73 0 -200 87 -117 80 -178 135 -178 161 0 31 -29 57 -63 57 -32 0 -67 -24 -67 -45 0 -13 -92 -33 -253 -56 -101 -14 -110 -11 -283 82 -95 52 -113 65 -118 89 -12 64 -92 77 -124 20 -13 -23 -35 -37 -92 -59 -90 -34 -164 -56 -253 -75 -62 -13 -67 -12 -83 5 -9 11 -22 19 -28 19 -11 1 -76 135 -76 156 0 7 29 14 69 18 99 10 261 49 371 89 64 24 105 33 125 30 17 -3 43 -5 59 -5z m3380 -27 c125 -43 265 -76 369 -87 38 -4 67 -12 67 -18 1 -21 -65 -155 -76 -156 -6 0 -19 -8 -28 -19 -16 -17 -21 -18 -83 -5 -173 37 -325 94 -341 129 -27 58 -108 50 -126 -12 -9 -28 -25 -41 -120 -92 -187 -101 -177 -100 -368 -68 -90 15 -165 32 -167 38 -8 24 -42 49 -68 49 -33 0 -63 -26 -63 -56 0 -27 -58 -80 -178 -162 -127 -87 -160 -101 -200 -87 -33 11 -142 111 -142 130 0 6 44 32 98 59 107 53 260 150 336 214 38 31 56 40 73 36 13 -4 33 0 46 9 21 14 31 13 108 -9 92 -27 234 -54 283 -54 41 0 153 54 271 131 64 41 100 59 113 55 11 -4 30 -2 43 3 34 14 28 15 153 -28z m-1716 -341 c44 -28 60 -44 56 -55 -10 -26 5 -64 32 -82 22 -14 30 -15 62 -3 35 12 36 12 74 -28 35 -38 37 -44 32 -85 -5 -37 -3 -48 15 -66 11 -11 32 -21 46 -21 29 0 41 -22 57 -110 32 -168 -91 -328 -244 -318 -97 7 -158 71 -158 167 0 39 6 56 27 82 54 63 132 73 173 22 24 -31 26 -70 3 -95 -20 -22 -39 -23 -47 -3 -7 20 -36 19 -36 -2 0 -26 31 -53 61 -53 18 0 36 10 53 31 76 90 -28 225 -147 189 -39 -11 -106 -67 -120 -100 -6 -13 -8 -13 -14 0 -14 33 -81 89 -120 100 -84 26 -173 -37 -173 -121 0 -33 21 -75 44 -91 33 -23 96 6 96 44 0 22 -28 24 -36 3 -13 -34 -64 2 -64 45 0 64 69 103 132 77 56 -24 88 -70 88 -128 0 -96 -61 -160 -158 -167 -153 -10 -276 150 -244 318 15 80 29 110 50 110 11 0 32 10 47 22 25 19 27 26 21 65 -5 41 -3 47 32 85 38 40 39 41 75 27 34 -12 39 -11 64 8 22 16 28 29 29 59 0 36 4 41 59 76 32 21 61 38 65 38 4 0 35 -18 68 -40z m-2702 -403 c-4 -39 -50 -117 -68 -117 -6 0 -12 9 -15 20 -6 24 -11 25 -34 5 -15 -15 -17 -13 -23 19 -12 61 10 116 67 170 l52 50 13 -55 c7 -30 11 -71 8 -92z m5356 82 c42 -42 62 -102 52 -155 -6 -32 -8 -34 -23 -19 -24 21 -28 19 -36 -12 l-7 -28 -29 35 c-45 55 -54 92 -39 172 13 77 12 77 82 7z m-5504 -339 c4 0 13 10 21 21 10 18 15 19 22 8 25 -39 -5 -219 -52 -314 -40 -83 -137 -201 -152 -186 -18 18 -14 218 7 286 24 78 60 150 105 205 l36 45 3 -33 c2 -17 6 -32 10 -32z m5647 -25 c19 -29 46 -88 61 -131 24 -68 28 -95 28 -192 0 -67 -5 -117 -11 -123 -15 -15 -111 103 -152 186 -47 95 -77 275 -52 314 7 11 12 10 22 -8 19 -30 29 -26 29 11 0 31 0 31 20 13 11 -10 36 -42 55 -70z m-2827 -60 c36 -74 38 -93 16 -158 -18 -52 -21 -55 -40 -29 -13 16 -15 16 -28 0 -7 -10 -16 -18 -19 -18 -8 0 -37 91 -37 118 0 24 59 152 70 152 3 0 20 -29 38 -65z m-54 -330 c4 -14 11 -25 16 -25 5 0 12 11 16 25 10 39 20 30 43 -42 30 -91 37 -200 17 -291 -15 -73 -63 -192 -76 -192 -13 0 -61 119 -76 192 -20 91 -13 200 17 291 23 72 33 81 43 42z" style="fill: rgb(237, 237, 237);"/>
    <path d="M9477 17384 c-143 -39 -277 -104 -387 -189 -56 -44 -173 -161 -202 -203 l-16 -24 -79 26 c-80 25 -324 76 -364 76 -30 0 -182 -81 -310 -165 l-107 -71 -48 34 c-76 53 -202 109 -310 139 -91 25 -114 28 -279 28 l-180 0 -67 -38 c-216 -121 -393 -329 -482 -568 l-18 -46 -146 -7 c-81 -3 -184 -12 -230 -20 l-83 -13 -75 -74 c-41 -41 -112 -120 -157 -177 -49 -61 -87 -100 -95 -97 -97 37 -285 57 -419 44 -182 -17 -380 -83 -442 -148 -176 -184 -301 -480 -301 -714 l0 -42 -83 -29 c-45 -15 -142 -57 -215 -92 l-133 -63 -63 -133 c-35 -73 -77 -170 -92 -215 l-29 -83 -42 0 c-234 0 -530 -125 -714 -301 -65 -63 -132 -264 -148 -445 -12 -137 8 -320 44 -416 3 -8 -36 -46 -97 -95 -57 -45 -136 -116 -177 -157 l-74 -75 -13 -83 c-8 -46 -17 -149 -20 -230 l-7 -146 -46 -18 c-239 -89 -447 -266 -568 -482 l-38 -67 0 -180 c0 -165 3 -188 28 -279 30 -108 86 -234 139 -310 l34 -48 -71 -107 c-84 -128 -165 -280 -165 -310 0 -40 51 -284 76 -364 l26 -79 -24 -16 c-42 -29 -159 -146 -203 -202 -90 -117 -157 -259 -196 -414 -20 -81 -21 -94 -9 -155 29 -146 109 -325 199 -443 48 -62 164 -179 209 -210 l24 -16 -26 -79 c-25 -80 -76 -324 -76 -364 0 -30 81 -182 165 -310 l71 -107 -34 -48 c-53 -76 -109 -202 -139 -310 -25 -91 -28 -114 -28 -279 l0 -180 34 -60 c127 -224 332 -399 572 -489 l46 -18 7 -146 c3 -81 12 -184 20 -230 l13 -83 74 -75 c41 -41 120 -112 177 -157 61 -49 100 -87 97 -95 -36 -96 -56 -279 -44 -416 16 -181 83 -383 148 -445 190 -179 479 -301 714 -301 l42 0 29 -83 c15 -45 57 -142 92 -215 l63 -133 133 -63 c73 -35 170 -77 215 -92 l83 -29 0 -42 c0 -191 87 -438 211 -602 93 -122 110 -139 181 -171 139 -62 279 -91 448 -91 113 0 256 20 320 45 11 5 40 -24 97 -96 45 -57 116 -136 157 -177 l75 -74 83 -13 c46 -8 149 -17 230 -20 l146 -7 18 -46 c79 -211 223 -395 409 -521 131 -88 119 -85 320 -85 165 0 188 3 279 28 109 30 234 86 311 140 l50 34 75 -52 c100 -70 309 -185 337 -185 41 0 285 51 366 76 l79 26 16 -24 c31 -45 148 -161 212 -210 96 -73 266 -154 393 -186 l107 -27 108 27 c126 32 296 113 392 186 64 49 181 165 212 210 l16 24 79 -26 c81 -25 325 -76 366 -76 28 0 237 115 337 185 l75 52 50 -34 c77 -54 202 -110 311 -140 91 -25 114 -28 279 -28 201 0 189 -3 320 85 186 126 330 310 409 521 l18 46 146 7 c81 3 184 12 230 20 l83 13 75 74 c41 41 112 120 157 177 57 72 86 101 97 96 64 -25 207 -45 320 -45 169 0 309 29 448 91 71 32 88 49 181 171 124 164 211 411 211 602 l0 42 83 29 c45 15 142 57 215 92 l133 63 63 133 c35 73 77 170 92 215 l29 83 42 0 c191 0 438 87 602 211 122 93 139 110 171 181 62 139 91 279 91 448 0 113 -20 256 -45 320 -5 11 24 40 96 97 57 45 136 116 177 157 l74 75 13 83 c8 46 17 149 20 230 l7 146 46 18 c211 79 395 223 521 409 88 131 85 119 85 320 0 165 -3 188 -28 279 -30 109 -86 234 -140 311 l-34 50 52 75 c70 100 185 309 185 337 0 41 -51 285 -76 366 l-26 79 24 16 c45 31 161 148 210 212 73 96 154 266 186 393 l27 107 -27 108 c-32 126 -113 296 -186 392 -49 64 -165 181 -210 212 l-24 16 26 79 c25 80 76 324 76 365 0 29 -88 192 -169 314 l-67 100 34 50 c53 76 109 201 139 310 25 91 28 114 28 279 0 201 3 189 -85 320 -126 186 -310 330 -521 409 l-46 18 -7 146 c-3 81 -12 184 -20 230 l-13 83 -74 75 c-41 41 -120 112 -177 157 -72 57 -101 86 -96 97 25 64 45 207 45 320 0 169 -29 309 -91 448 -32 71 -49 88 -171 181 -164 124 -411 211 -602 211 l-42 0 -29 83 c-15 45 -57 142 -92 215 l-63 133 -133 63 c-73 35 -170 77 -215 92 l-83 29 0 42 c0 235 -122 524 -301 714 -61 64 -259 131 -442 148 -134 13 -322 -7 -419 -44 -8 -3 -46 36 -95 97 -45 57 -116 136 -157 177 l-75 74 -83 13 c-46 8 -149 17 -230 20 l-146 7 -18 46 c-84 228 -267 445 -473 562 l-76 44 -180 0 c-165 0 -188 -3 -279 -28 -108 -30 -234 -86 -310 -139 l-48 -34 -107 71 c-128 84 -280 165 -310 165 -40 0 -284 -51 -364 -76 l-79 -26 -16 24 c-31 45 -148 161 -212 210 -127 97 -402 210 -505 207 -16 0 -69 -11 -118 -25z m248 -32 c99 -30 217 -89 313 -155 67 -46 242 -217 242 -236 0 -5 -34 -25 -75 -44 -94 -45 -154 -86 -227 -155 -73 -69 -113 -131 -132 -206 -25 -95 -1 -171 77 -244 110 -100 289 -91 405 21 78 75 113 165 113 287 0 88 -23 185 -63 264 -15 29 -17 41 -8 46 16 10 179 45 309 66 l98 17 89 -48 c130 -70 274 -155 274 -161 0 -3 -24 -33 -54 -66 -67 -74 -121 -181 -137 -271 -29 -169 58 -331 207 -387 131 -48 265 -5 331 108 25 41 28 57 27 127 -1 136 -67 266 -206 406 l-86 88 48 31 c178 114 378 170 609 170 l126 0 85 -57 c167 -114 327 -304 398 -475 18 -42 32 -81 32 -86 0 -4 -40 -14 -88 -20 -159 -21 -313 -87 -397 -170 -65 -64 -89 -114 -89 -187 0 -154 123 -268 290 -268 180 0 325 146 356 359 8 56 8 101 2 152 l-10 72 58 0 c31 0 126 -9 210 -21 145 -20 155 -23 187 -52 46 -44 231 -248 242 -268 7 -14 -4 -24 -58 -55 -78 -46 -168 -131 -206 -196 -136 -232 -2 -518 243 -518 257 1 333 290 166 625 l-54 106 27 11 c106 40 352 52 504 24 90 -17 251 -69 276 -90 8 -6 41 -47 74 -91 70 -93 157 -269 186 -373 20 -75 47 -269 38 -278 -2 -3 -45 2 -93 12 -105 19 -280 15 -359 -10 -135 -42 -215 -126 -223 -234 -10 -144 78 -259 228 -298 80 -20 142 -12 230 32 120 60 216 197 242 345 6 35 14 68 18 72 9 10 82 -19 251 -100 l137 -65 65 -137 c81 -169 110 -242 100 -251 -4 -4 -37 -12 -72 -18 -97 -17 -202 -71 -270 -139 -98 -100 -136 -214 -108 -329 47 -188 228 -287 384 -209 70 35 116 97 149 204 25 75 29 251 10 355 -10 48 -15 91 -12 94 10 9 201 -18 278 -39 104 -29 280 -116 373 -186 44 -33 85 -66 92 -74 18 -22 69 -182 88 -274 29 -143 17 -401 -23 -506 l-11 -27 -105 53 c-125 63 -220 87 -336 87 -137 0 -218 -41 -265 -135 -69 -139 0 -315 152 -384 184 -85 410 12 537 230 31 54 41 65 55 58 18 -10 244 -215 277 -252 18 -19 26 -53 43 -177 12 -84 21 -179 21 -210 l0 -58 -72 10 c-146 19 -306 -26 -402 -114 -27 -25 -60 -70 -78 -108 -28 -56 -32 -76 -32 -137 2 -166 116 -289 269 -289 73 0 123 24 187 89 83 84 149 238 170 397 6 48 16 88 20 88 5 0 44 -14 86 -32 171 -71 361 -231 475 -398 l57 -85 0 -121 c0 -235 -56 -436 -171 -616 l-30 -46 -88 86 c-140 139 -270 205 -406 206 -70 1 -86 -2 -127 -27 -185 -108 -163 -390 38 -499 152 -82 357 -43 512 98 33 30 63 54 66 54 6 0 91 -144 161 -274 l48 -89 -23 -131 c-21 -124 -55 -275 -64 -283 -2 -3 -19 3 -37 12 -54 28 -140 55 -206 65 -271 38 -497 -180 -429 -414 21 -70 81 -140 145 -169 166 -74 388 75 517 346 20 43 40 77 45 77 19 0 190 -176 238 -244 67 -97 134 -239 165 -348 l25 -88 -25 -87 c-32 -113 -99 -252 -165 -348 -47 -69 -219 -245 -238 -245 -5 0 -25 34 -44 75 -45 94 -86 154 -155 227 -69 73 -131 113 -206 132 -95 25 -171 1 -244 -77 -100 -110 -91 -289 21 -405 75 -78 165 -113 287 -113 88 0 185 23 263 63 22 11 41 18 43 15 9 -8 43 -159 64 -283 l23 -131 -48 -89 c-70 -130 -155 -274 -161 -274 -3 0 -33 24 -66 54 -74 67 -181 121 -271 137 -201 34 -388 -96 -404 -283 -10 -109 35 -203 124 -255 42 -25 58 -28 128 -27 136 1 266 67 406 206 l88 86 30 -46 c115 -180 171 -381 171 -616 l0 -121 -57 -84 c-114 -168 -304 -328 -475 -399 -42 -18 -81 -32 -86 -32 -4 0 -14 40 -20 88 -21 159 -87 313 -170 397 -64 65 -114 89 -187 89 -154 0 -268 -123 -268 -290 0 -180 146 -325 359 -356 56 -8 101 -8 152 -2 l72 10 0 -58 c0 -31 -9 -126 -21 -210 -17 -124 -25 -158 -43 -177 -33 -37 -259 -242 -277 -252 -14 -7 -24 4 -55 58 -46 78 -131 168 -196 206 -232 136 -518 2 -518 -243 1 -257 290 -333 625 -166 l106 54 11 -27 c40 -105 52 -363 23 -506 -19 -92 -70 -252 -88 -274 -7 -8 -48 -41 -92 -74 -93 -70 -269 -157 -373 -186 -77 -21 -268 -48 -278 -39 -3 3 2 46 12 94 19 104 15 280 -10 355 -49 155 -134 229 -260 229 -137 -1 -244 -97 -277 -249 -41 -194 141 -410 382 -453 35 -6 68 -14 72 -18 10 -9 -19 -82 -100 -251 l-65 -137 -137 -65 c-169 -81 -242 -110 -251 -100 -4 4 -12 37 -18 72 -42 239 -256 421 -450 382 -153 -31 -251 -139 -252 -277 0 -126 74 -211 229 -260 75 -25 251 -29 355 -10 48 10 91 15 94 12 9 -10 -18 -201 -39 -278 -29 -104 -116 -280 -186 -373 -33 -44 -66 -85 -74 -92 -22 -18 -182 -69 -274 -88 -143 -29 -401 -17 -506 23 l-27 11 54 106 c167 335 91 624 -166 625 -192 0 -334 -190 -291 -389 27 -126 122 -248 254 -325 54 -31 65 -41 58 -55 -10 -18 -215 -244 -252 -277 -19 -18 -53 -26 -177 -43 -84 -12 -179 -21 -210 -21 l-58 0 10 72 c27 206 -63 402 -221 480 -153 75 -340 15 -407 -132 -28 -62 -27 -151 1 -206 66 -125 252 -227 465 -256 48 -6 88 -16 88 -20 0 -5 -14 -44 -32 -86 -71 -171 -231 -361 -399 -475 l-84 -57 -121 0 c-235 0 -436 56 -616 171 l-46 30 86 88 c139 140 205 270 206 406 1 70 -2 86 -27 128 -111 189 -398 160 -506 -51 -74 -145 -31 -350 105 -500 30 -33 54 -63 54 -66 0 -6 -144 -91 -274 -161 l-89 -48 -131 23 c-124 21 -275 55 -283 64 -3 2 4 21 15 43 40 78 63 175 63 263 0 122 -35 212 -113 287 -116 112 -295 121 -405 21 -51 -48 -68 -77 -82 -141 -34 -151 121 -348 364 -464 41 -19 75 -39 75 -44 0 -19 -176 -191 -245 -238 -96 -66 -235 -133 -347 -165 l-88 -25 -87 25 c-113 32 -252 99 -348 165 -69 47 -245 219 -245 238 0 5 34 25 77 45 271 129 420 351 346 517 -29 64 -99 124 -169 145 -190 55 -384 -88 -414 -304 -13 -96 14 -233 65 -331 9 -18 15 -35 12 -37 -8 -9 -159 -43 -283 -64 l-131 -23 -89 48 c-130 70 -274 155 -274 161 0 3 24 33 54 66 141 155 180 361 98 511 -110 202 -390 225 -499 40 -25 -42 -28 -58 -27 -128 1 -136 67 -266 206 -406 l86 -88 -46 -30 c-180 -115 -381 -171 -616 -171 l-121 0 -85 57 c-167 114 -327 304 -398 475 -18 42 -32 81 -32 86 0 4 40 14 88 20 159 21 313 87 397 170 65 64 89 114 89 187 0 153 -123 267 -289 269 -179 1 -326 -147 -357 -360 -8 -56 -8 -101 -2 -152 l10 -72 -58 0 c-31 0 -126 9 -210 21 -124 17 -158 25 -177 43 -37 33 -242 259 -252 277 -7 14 4 24 58 55 132 77 227 199 254 325 43 199 -99 389 -291 389 -257 -1 -333 -290 -166 -625 l54 -106 -27 -11 c-105 -40 -363 -52 -506 -23 -92 19 -252 70 -274 88 -8 7 -41 48 -74 92 -70 93 -157 269 -186 373 -21 77 -48 269 -39 278 3 3 43 -2 88 -10 106 -21 232 -20 323 0 178 40 267 130 267 268 -1 137 -97 244 -249 277 -194 41 -410 -141 -453 -382 -6 -35 -14 -68 -18 -72 -9 -10 -82 19 -251 100 l-137 65 -65 137 c-81 169 -110 242 -100 251 4 4 37 12 72 18 148 26 285 122 345 242 44 88 52 150 32 229 -38 150 -147 237 -286 229 -119 -6 -202 -82 -246 -223 -25 -79 -29 -254 -10 -359 10 -48 15 -91 12 -94 -10 -9 -201 18 -278 39 -104 29 -280 116 -373 186 -44 33 -85 66 -91 74 -20 25 -65 161 -86 259 -33 157 -23 408 20 521 l11 27 106 -54 c335 -167 624 -91 625 166 0 245 -286 379 -518 243 -65 -38 -150 -128 -196 -206 -31 -54 -41 -65 -55 -58 -18 10 -244 215 -277 252 -18 19 -26 53 -43 177 -12 84 -21 179 -21 210 l0 58 72 -10 c206 -27 402 63 480 221 75 153 15 340 -132 407 -62 28 -151 27 -206 -1 -125 -66 -227 -252 -256 -465 -6 -48 -16 -88 -20 -88 -5 0 -44 14 -86 32 -171 71 -361 231 -475 398 l-57 85 0 121 c0 235 56 436 170 614 l31 48 88 -86 c140 -139 270 -205 406 -206 70 -1 86 2 127 27 113 66 156 200 108 331 -56 149 -218 236 -387 207 -92 -16 -195 -68 -270 -135 -33 -31 -64 -56 -67 -56 -6 0 -91 144 -161 274 l-48 89 17 98 c21 130 56 293 66 309 5 9 17 7 46 -8 79 -40 176 -63 264 -63 90 0 144 14 215 56 171 101 216 327 93 462 -48 51 -77 68 -141 82 -151 34 -348 -121 -464 -364 -19 -41 -39 -75 -44 -75 -19 0 -190 176 -238 244 -67 97 -134 239 -165 349 l-25 87 25 88 c31 109 98 251 165 348 48 68 219 244 238 244 5 0 25 -34 45 -77 115 -242 314 -396 468 -362 59 14 89 32 136 82 102 112 91 290 -25 409 -127 129 -352 147 -552 43 -18 -9 -35 -15 -37 -12 -9 8 -43 159 -64 283 l-23 131 48 89 c70 130 155 274 161 274 3 0 33 -24 66 -54 72 -66 180 -121 267 -136 170 -30 335 57 391 206 48 131 5 265 -108 331 -41 25 -57 28 -127 27 -136 -1 -266 -67 -406 -206 l-88 -86 -31 48 c-114 178 -170 379 -170 614 l0 121 57 85 c114 167 304 327 475 398 42 18 81 32 86 32 4 0 14 -40 20 -88 21 -159 87 -313 170 -397 64 -65 114 -89 187 -89 154 0 268 123 268 290 0 180 -146 325 -359 356 -56 8 -101 8 -152 2 l-72 -10 0 58 c0 31 9 126 21 210 20 145 23 155 52 187 44 46 248 231 268 242 14 7 24 -4 55 -58 77 -132 199 -227 325 -254 199 -43 389 99 389 291 -1 257 -290 333 -625 166 l-106 -54 -11 27 c-40 106 -52 362 -23 506 8 44 30 122 47 173 29 85 37 98 82 136 113 95 287 187 424 225 77 21 268 48 278 39 3 -3 -2 -46 -12 -94 -19 -104 -15 -280 10 -355 33 -107 79 -169 149 -204 117 -58 261 -15 340 102 41 63 63 159 49 227 -17 83 -51 146 -113 209 -68 68 -173 122 -270 139 -35 6 -68 14 -72 18 -10 9 19 82 100 251 l65 137 137 65 c169 81 242 110 251 100 4 -4 12 -37 18 -72 17 -97 71 -202 139 -270 100 -98 214 -136 329 -108 188 47 287 228 209 384 -71 141 -305 207 -565 157 -45 -8 -85 -13 -88 -10 -9 10 18 201 39 278 38 137 130 311 225 424 38 45 52 53 136 82 51 18 129 39 173 48 146 28 402 16 506 -24 l27 -11 -54 -106 c-167 -335 -91 -624 166 -625 192 0 334 190 291 389 -27 126 -122 248 -254 325 -54 31 -65 41 -58 55 11 20 196 224 242 268 32 29 42 32 187 52 84 12 179 21 210 21 l58 0 -10 -72 c-27 -206 63 -402 221 -480 153 -75 340 -15 407 132 28 62 27 151 -1 206 -66 125 -252 227 -465 256 -48 6 -88 16 -88 20 0 5 14 44 32 86 71 171 231 361 398 475 l85 57 126 0 c231 0 431 -56 609 -170 l48 -31 -86 -88 c-139 -140 -205 -270 -206 -406 -1 -70 2 -86 27 -127 108 -185 390 -163 499 38 82 152 43 357 -98 512 -30 33 -54 63 -54 66 0 6 144 91 274 161 l89 48 98 -17 c130 -21 293 -56 309 -66 9 -6 8 -15 -5 -40 -77 -149 -88 -318 -30 -448 88 -197 336 -264 482 -130 50 47 68 77 82 136 34 154 -120 353 -362 468 -43 20 -77 40 -77 45 0 19 176 190 244 238 96 66 238 134 346 165 91 26 94 26 215 -12z m-751 -476 c206 -95 336 -239 336 -373 0 -65 -13 -99 -53 -142 -96 -101 -271 -93 -368 17 -74 84 -108 234 -80 349 15 60 71 183 83 183 5 0 42 -15 82 -34z m1374 -33 c43 -96 55 -152 50 -241 -10 -182 -129 -312 -282 -312 -72 0 -127 23 -173 71 -40 43 -53 77 -53 142 0 133 129 277 334 373 39 18 76 33 82 34 6 0 25 -30 42 -67z m-2276 -121 c120 -129 164 -279 123 -420 -54 -179 -272 -255 -398 -138 -91 84 -86 239 12 390 40 62 189 216 208 216 6 0 31 -22 55 -48z m3199 -29 c175 -170 238 -341 173 -471 -53 -107 -187 -144 -305 -84 -158 80 -197 313 -82 495 30 48 112 137 126 137 5 0 45 -34 88 -77z m-4424 -382 c218 -45 356 -162 356 -301 0 -126 -104 -220 -241 -220 -73 1 -128 25 -196 90 -105 99 -143 246 -110 423 5 25 9 27 52 27 26 0 88 -9 139 -19z m5697 -8 c33 -177 -5 -324 -110 -423 -68 -65 -123 -89 -196 -90 -137 0 -241 94 -241 220 0 101 71 189 202 252 71 34 209 66 288 67 48 1 52 -1 57 -26z m-6591 -405 c136 -73 226 -201 235 -335 6 -98 -10 -152 -65 -213 -56 -63 -110 -84 -197 -78 -54 3 -72 9 -103 34 -109 88 -124 266 -37 462 32 73 86 162 97 162 5 0 37 -15 70 -32z m7404 -20 c81 -134 117 -256 111 -373 -5 -94 -30 -150 -91 -199 -31 -25 -49 -31 -103 -34 -87 -6 -141 15 -197 78 -55 61 -71 115 -65 213 6 95 43 172 117 246 50 50 158 120 186 121 6 0 25 -24 42 -52z m-8202 -762 c115 -35 185 -109 193 -202 6 -69 -16 -129 -66 -179 -52 -52 -87 -67 -162 -72 -189 -14 -364 160 -387 384 l-6 51 74 16 c41 8 85 17 99 20 46 9 205 -3 255 -18z m9244 -1 l73 -17 -6 -55 c-26 -225 -197 -394 -386 -380 -73 5 -110 20 -159 69 -65 63 -89 165 -57 241 58 140 283 199 535 142z m-10136 -674 c176 -61 285 -206 274 -361 -5 -75 -20 -110 -72 -162 -50 -50 -110 -72 -179 -66 -95 8 -168 79 -203 198 -23 77 -23 242 1 344 l18 79 51 -6 c29 -3 78 -14 110 -26z m10854 -48 c23 -101 23 -267 0 -343 -35 -119 -108 -190 -203 -198 -69 -6 -129 16 -179 66 -58 58 -69 87 -70 177 0 99 30 171 102 243 71 71 201 129 295 131 l37 1 18 -77z m-11298 -953 c24 -14 58 -42 75 -63 25 -31 31 -49 34 -103 6 -87 -15 -141 -78 -197 -61 -55 -115 -71 -213 -65 -137 9 -264 100 -337 240 -41 79 -45 73 87 139 121 61 191 79 298 76 74 -2 98 -7 134 -27z m11835 14 c60 -15 223 -89 261 -119 20 -16 19 -17 -15 -83 -73 -140 -200 -231 -337 -240 -98 -6 -152 10 -213 65 -62 56 -84 110 -78 196 6 92 51 149 146 183 51 18 161 17 236 -2z m-12561 -904 c128 -21 250 -107 297 -212 22 -48 26 -140 9 -185 -51 -137 -197 -197 -312 -130 -59 35 -111 96 -149 175 -33 70 -68 220 -68 294 0 52 -7 46 90 61 46 8 75 7 133 -3z m13215 -7 c19 -4 22 -12 22 -52 0 -73 -35 -223 -68 -293 -63 -130 -151 -201 -252 -201 -126 0 -220 103 -220 242 0 140 139 281 307 311 46 8 164 5 211 -7z m-13340 -1093 c115 -52 157 -188 95 -311 -81 -158 -314 -197 -496 -82 -48 30 -137 112 -137 126 0 19 154 168 216 208 116 75 237 98 322 59z m13461 1 c34 -11 90 -38 125 -60 62 -40 216 -189 216 -208 0 -14 -89 -96 -137 -126 -231 -146 -523 -37 -523 195 0 72 17 115 63 159 64 61 148 74 256 40z m-13699 -1082 c117 -54 180 -143 180 -253 0 -72 -23 -127 -71 -173 -43 -40 -77 -53 -142 -53 -134 0 -278 130 -373 336 -19 40 -34 77 -34 81 0 11 79 51 150 75 81 27 216 21 290 -13z m14005 20 c56 -15 175 -70 175 -81 0 -20 -70 -159 -107 -214 -109 -159 -263 -238 -380 -193 -77 29 -133 119 -133 214 0 126 84 227 223 270 52 17 168 19 222 4z m-13958 -1090 c15 -5 43 -25 62 -42 101 -96 93 -271 -17 -368 -84 -74 -234 -108 -349 -80 -60 15 -183 71 -183 83 0 20 70 159 107 214 109 159 263 238 380 193z m13830 -14 c65 -30 143 -101 196 -179 37 -55 107 -194 107 -214 0 -12 -123 -68 -183 -83 -115 -28 -265 6 -349 80 -79 69 -111 197 -72 289 19 46 69 100 109 118 49 22 133 17 192 -11z m-13709 -1090 c179 -54 255 -272 138 -398 -84 -91 -239 -86 -390 12 -62 40 -216 189 -216 208 0 14 89 96 137 126 99 63 227 83 331 52z m13633 -5 c33 -12 79 -32 102 -47 48 -30 137 -112 137 -126 0 -19 -154 -168 -216 -208 -115 -75 -238 -97 -322 -59 -81 37 -122 103 -122 199 0 71 38 152 92 194 82 66 217 85 329 47z m-13231 -1019 c96 -58 139 -198 92 -305 -63 -142 -250 -241 -417 -221 -108 13 -105 11 -105 63 0 74 35 224 68 294 88 182 230 249 362 169z m12817 3 c55 -31 107 -94 145 -172 33 -70 68 -220 68 -294 0 -43 -2 -47 -27 -52 -177 -33 -324 5 -423 110 -66 70 -90 122 -90 200 0 182 176 295 327 208z m-12355 -996 c22 -6 62 -31 88 -55 63 -56 84 -110 78 -197 -3 -54 -9 -72 -34 -103 -17 -21 -50 -49 -74 -62 -59 -33 -178 -40 -270 -16 -63 16 -226 90 -264 120 -19 14 -19 15 0 57 50 112 153 211 256 248 61 22 162 26 220 8z m11932 -23 c76 -36 162 -123 206 -207 41 -80 46 -73 -95 -143 -121 -59 -199 -78 -300 -73 -94 5 -150 30 -199 91 -25 31 -31 49 -34 103 -6 87 15 141 78 197 62 56 96 67 200 63 69 -2 96 -8 144 -31z m-11299 -824 c45 -20 99 -72 122 -116 9 -16 18 -59 20 -95 14 -189 -155 -360 -380 -386 l-55 -6 -16 71 c-58 254 -1 476 139 537 43 19 123 17 170 -5z m10609 -11 c47 -32 92 -100 113 -170 23 -76 23 -241 -1 -344 l-18 -79 -51 6 c-224 23 -398 198 -384 387 2 36 11 79 20 95 23 44 76 95 122 117 57 27 150 21 199 -12z m-9789 -802 c87 -46 141 -139 133 -232 -8 -95 -79 -167 -198 -203 -76 -23 -241 -23 -344 1 l-79 18 6 51 c11 114 75 239 153 303 72 59 147 85 229 81 39 -2 84 -11 100 -19z m8990 1 c140 -52 245 -199 262 -366 l6 -51 -79 -18 c-103 -24 -268 -24 -344 -1 -119 36 -190 108 -198 203 -6 69 16 129 66 179 75 76 177 95 287 54z m-8160 -608 c54 -24 119 -100 135 -156 19 -70 9 -178 -25 -249 -36 -76 -122 -162 -207 -206 -80 -41 -73 -46 -143 95 -59 121 -78 199 -73 300 6 112 43 178 123 219 41 22 140 20 190 -3z m7332 -17 c61 -49 86 -105 91 -199 5 -101 -14 -179 -73 -300 -70 -141 -63 -136 -143 -95 -140 73 -231 200 -240 337 -6 95 10 152 61 210 58 65 105 84 194 81 63 -3 76 -7 110 -34z m-6330 -495 c137 -51 197 -197 130 -312 -35 -59 -96 -111 -175 -149 -70 -33 -220 -68 -294 -68 -52 0 -50 -3 -63 105 -20 163 74 348 210 411 55 26 142 32 192 13z m5291 -9 c65 -30 145 -111 176 -180 44 -98 53 -192 30 -312 -5 -26 -9 -28 -52 -28 -74 0 -224 35 -294 68 -177 85 -248 230 -175 355 61 104 203 148 315 97z m-4277 -327 c158 -81 197 -314 82 -496 -30 -48 -112 -137 -126 -137 -19 0 -168 154 -208 216 -95 147 -104 295 -22 379 46 47 86 63 159 64 47 1 72 -5 115 -26z m3280 13 c76 -32 128 -113 129 -198 0 -66 -31 -158 -79 -232 -40 -62 -189 -216 -208 -216 -14 0 -96 89 -126 137 -115 182 -76 415 82 496 62 31 146 37 202 13z m-2156 -185 c47 -22 99 -74 114 -114 45 -117 -34 -271 -193 -380 -55 -37 -194 -107 -214 -107 -12 0 -68 123 -83 183 -28 115 6 265 80 349 71 81 203 112 296 69z m1043 -7 c100 -50 162 -154 170 -286 3 -43 -1 -99 -7 -125 -15 -60 -71 -183 -83 -183 -5 0 -42 15 -82 34 -206 95 -336 239 -336 373 0 65 13 99 53 142 71 75 188 93 285 45z" style="fill: rgb(237, 237, 237);"/>
  </g>
</svg>